<svg width="101" height="154" viewBox="0 0 101 154" fill="none" xmlns="http://www.w3.org/2000/svg">
<path fill-rule="evenodd" clip-rule="evenodd" d="M72.9444 11.5471L31.3941 30.5345H72.9444V11.5471ZM84.1667 30.5345V11.4535C84.1667 7.27632 82.0528 3.67289 78.9027 1.66794C75.8437 -0.279057 71.6821 -0.733523 68.0336 1.45102L3.27928 31.0421C1.28152 31.955 0 33.9498 0 36.1466V142.776C0 145.735 1.01064 148.637 3.18651 150.813C5.36238 152.989 8.26378 154 11.2222 154H89.7778C92.7362 154 95.6376 152.989 97.8135 150.813C99.9894 148.637 101 145.735 101 142.776V41.7587C101 38.7997 99.9894 35.8978 97.8135 33.7216C95.6376 31.5453 92.7362 30.5345 89.7778 30.5345H84.1667ZM11.2222 41.7587V142.776H89.7778V41.7587H11.2222ZM30.7147 50.8654C31.5755 48.7522 33.6297 47.3707 35.9111 47.3707H65.65C67.9314 47.3707 69.9857 48.7522 70.8464 50.8654L77.0186 66.018C77.0385 66.0666 77.0576 66.1156 77.0761 66.1648C81.2324 77.2503 78.4498 89.7628 69.4673 98.0642C65.591 101.679 60.9526 103.967 56.1111 104.931V115.838C56.1111 120.424 58.5557 124.237 62.4443 125.94H63.4056C66.5045 125.94 69.0167 128.452 69.0167 131.552C69.0167 131.642 69.0146 131.731 69.0104 131.82C69.0353 132.301 68.998 132.794 68.8921 133.289C68.2428 136.319 65.26 138.25 62.2299 137.6C61.6465 137.475 61.0748 137.33 60.5153 137.164H37.5944C34.7243 137.164 32.3169 134.998 32.0146 132.143C31.7122 129.288 33.6124 126.666 36.4188 126.064C41.5278 124.969 44.8889 120.654 44.8889 115.277V104.813C40.2872 103.796 35.8899 101.574 32.1821 98.1461C22.9709 90.268 20.3936 77.0773 24.485 66.1648C24.5035 66.1156 24.5227 66.0666 24.5425 66.018L30.7147 50.8654ZM52.0864 94.1783C51.5833 94.0303 51.0509 93.9509 50.5 93.9509C50.0006 93.9509 49.5165 94.0161 49.0556 94.1386C45.6912 93.7751 42.4144 92.3449 39.7397 89.8481C39.6731 89.786 39.6051 89.7255 39.5356 89.6667C34.2603 85.2022 32.3787 77.1637 34.9671 70.1748L39.684 58.5949H61.8771L66.5941 70.1749C69.1322 77.0258 67.4227 84.6767 61.8441 89.8271L61.8214 89.8481C59.0358 92.4485 55.5971 93.8919 52.0864 94.1783Z" fill="#9B793B"/>
</svg>
