<svg width="368" height="139" viewBox="0 0 368 139" fill="none" xmlns="http://www.w3.org/2000/svg">
<path d="M201.646 41.0356C201.72 40.4159 201.834 39.8012 201.933 39.1782C201.987 38.8812 202.023 38.5812 202.04 38.2799C202.053 37.9422 202.04 37.6045 202.029 37.2667C202.028 37.2437 202.028 37.2206 202.029 37.1975C201.948 37.1643 201.879 37.107 201.832 37.0333C201.784 36.9596 201.761 36.8731 201.764 36.7855C201.386 36.6707 201.009 36.5559 200.631 36.4478C198.703 35.8788 196.745 35.4195 194.78 34.9771C194.29 34.8656 193.797 34.7559 193.305 34.6495C193.248 34.6398 193.195 34.6151 193.151 34.578C193.107 34.5409 193.073 34.4927 193.054 34.4384C190.622 34.3575 188.196 34.1382 185.789 33.7816C186.406 34.1901 186.979 34.6615 187.499 35.1882C188.021 35.735 188.491 36.3285 188.904 36.9611C189.352 37.605 189.727 38.2965 190.023 39.0228C190.185 39.4173 190.283 39.8351 190.313 40.2605C190.335 40.6573 190.313 41.2162 190.072 41.5421C189.955 41.7192 189.826 41.8884 189.687 42.0487C189.528 42.2074 189.234 42.2581 189.021 42.28C188.648 42.3109 188.276 42.198 187.984 41.9643C186.916 41.1453 186.345 39.8823 185.755 38.7037C185.325 37.8425 184.922 36.9662 184.537 36.0814C184.345 35.639 184.155 35.1932 183.981 34.7424C183.911 34.5583 183.838 34.3338 183.769 34.1717C183.703 34.0381 183.649 33.8991 183.608 33.7563C183.468 33.6852 183.339 33.5923 183.228 33.481C183.205 33.4569 183.184 33.4303 183.167 33.4017C180.6 33.0167 178.041 32.5889 175.489 32.1184C172.598 31.5882 169.723 30.9736 166.858 30.3133C167.047 30.5481 167.233 30.7861 167.403 31.0344C167.922 31.7773 168.471 32.4983 168.98 33.2463C169.228 33.6128 169.464 33.9859 169.676 34.376C169.885 34.7836 170.072 35.2018 170.238 35.6289C170.425 36.0798 170.55 36.5542 170.608 37.0388C170.667 37.5015 170.689 37.9658 170.758 38.4285C170.796 38.6801 170.892 38.9587 170.791 39.2001C170.724 39.3684 170.606 39.5111 170.453 39.6071C170.153 39.7539 169.808 39.7799 169.49 39.6797C168.911 39.5197 168.369 39.2478 167.895 38.8793C166.437 37.7936 165.499 36.1472 164.8 34.5026C164.379 33.5418 164.041 32.5574 163.703 31.5747C163.55 31.1622 163.437 30.7358 163.366 30.3015C163.328 30.0589 163.332 29.8119 163.376 29.5704L163.394 29.4877C160.914 28.8865 158.439 28.2601 155.969 27.6303C152.759 26.8181 149.558 25.9535 146.438 24.8357C145.99 24.6753 145.546 24.5098 145.1 24.341C141.214 24.3731 137.313 24.2903 133.434 23.9459C132.693 23.88 131.954 23.8023 131.216 23.7179C130.782 23.6673 130.777 22.9834 131.216 23.0425C135.245 23.4763 139.294 23.6827 143.346 23.6605C141.402 22.872 139.486 22.0142 137.602 21.1108C136.872 20.7607 136.146 20.405 135.423 20.0437C134.889 19.7786 135.359 18.9782 135.891 19.2433C138.763 20.6786 141.685 22.0294 144.676 23.1978C145.068 23.3509 145.462 23.5001 145.858 23.6453C146.817 23.6341 147.774 23.6166 148.73 23.593C154.559 23.4545 160.387 23.2553 166.212 23.1539C168.951 23.11 171.688 23.056 174.409 22.7335C174.547 20.8622 175.077 19.0408 175.965 17.3876C176.81 15.8426 178.02 14.5458 179.38 13.4364C179.957 12.967 180.645 12.4233 181.407 12.3625C181.591 12.342 181.776 12.3702 181.946 12.4443C182.115 12.5184 182.262 12.6358 182.371 12.7846C182.54 13.0816 182.6 13.4278 182.54 13.764C182.45 14.4019 182.28 15.0259 182.034 15.6214C181.649 16.6615 181.148 17.655 180.54 18.5831C179.843 19.6396 179.033 20.6178 178.126 21.5009C177.83 21.7896 177.523 22.0615 177.209 22.3282C179.285 21.9753 181.346 21.5296 183.392 21.0365C186.218 20.3611 189.018 19.5624 191.77 18.6287C191.934 18.382 192.074 18.1195 192.187 17.8452C192.339 17.3386 192.452 16.8101 192.581 16.2951C192.836 15.2617 193.087 14.2283 193.444 13.2236C193.807 12.1936 194.257 11.196 194.789 10.2417C195.197 9.5038 195.694 8.55315 196.579 8.32182C197.186 8.1631 197.694 8.49068 197.872 9.07322C198.041 9.60849 197.961 10.2079 197.887 10.7533C197.697 12.2467 197.253 13.6967 196.574 15.0405C196.084 15.9371 195.491 16.773 194.806 17.5311C196.198 16.9975 197.574 16.424 198.936 15.8105C201.153 14.7974 203.329 13.6948 205.454 12.5094C205.42 12.426 205.417 12.3334 205.445 12.2479C205.473 12.1625 205.53 12.0894 205.606 12.0417L205.662 12.0028C205.751 11.7698 205.878 11.5436 205.981 11.3274C206.14 10.99 206.273 10.6412 206.38 10.2839C206.596 9.55783 206.75 8.81656 206.925 8.0888C207.263 6.69238 207.703 5.30778 208.63 4.18321C209.03 3.6986 209.606 3.21231 210.275 3.23426C210.98 3.2579 211.478 3.83538 211.6 4.49728C211.742 5.26894 211.385 6.05242 211.049 6.72446C210.675 7.46409 210.258 8.18126 209.801 8.87228C209.34 9.57909 208.82 10.2461 208.248 10.8665C210.009 9.75201 211.708 8.55146 213.441 7.38637C213.963 7.03516 214.496 6.71095 215.04 6.3952C215.095 6.33272 215.149 6.27193 215.197 6.21284C215.43 5.92578 215.687 5.66068 215.928 5.38208C216.403 4.83668 216.759 4.2001 217.175 3.61586C218.055 2.36972 219.248 1.37517 220.478 0.488692C220.873 0.203329 221.385 -0.0803441 221.889 0.0209682C222.522 0.147609 222.711 0.865234 222.657 1.42076C222.588 2.15021 222.174 2.73276 221.725 3.27816C221.264 3.83671 220.755 4.35371 220.204 4.82317C219.587 5.37203 218.925 5.86902 218.226 6.30908C217.476 6.7633 216.646 7.04529 215.842 7.38806C215.763 7.42768 215.674 7.4463 215.586 7.44217C215.497 7.43803 215.411 7.41126 215.335 7.36442H215.327C215.308 7.36442 215.276 7.39144 215.259 7.39988C215.192 7.43683 215.116 7.4562 215.04 7.4562C214.963 7.4562 214.887 7.43683 214.82 7.39988C213.022 8.60718 211.245 9.85333 209.414 11.01C210.383 10.8125 211.368 10.6995 212.357 10.6723C213.033 10.652 213.708 10.6588 214.384 10.6452C215.024 10.6143 215.664 10.6642 216.291 10.7938C216.844 10.9272 217.706 11.2413 217.839 11.8711C217.993 12.5904 217.116 12.9822 216.58 13.1797C215.2 13.6863 213.626 13.4567 212.188 13.3233C211.313 13.2422 210.438 13.1392 209.569 12.994C209.133 12.9214 208.701 12.8252 208.267 12.7424C208.054 12.6985 207.839 12.6563 207.626 12.6124C207.447 12.5506 207.261 12.507 207.072 12.4824C207.04 12.4825 207.008 12.4791 206.976 12.4722C205.047 13.5867 203.067 14.6302 201.039 15.6011C198.843 16.6564 196.598 17.6003 194.316 18.448C195.578 18.4319 196.839 18.5081 198.09 18.6759C199.477 18.8634 200.941 19.1386 202.04 20.0724C202.496 20.4607 202.967 21.0264 202.984 21.6528C202.987 21.8174 202.954 21.9806 202.887 22.1307C202.819 22.2808 202.719 22.4141 202.594 22.5207C202.443 22.6444 202.259 22.7197 202.065 22.7369C201.991 22.7445 201.917 22.7445 201.844 22.7369C201.731 22.7326 201.618 22.7388 201.506 22.7554C199.757 22.8973 198.022 22.4177 196.365 21.9112C195.449 21.656 194.558 21.3168 193.704 20.8981L192.478 20.2665C192.101 20.0724 191.677 19.8579 191.415 19.5185C191.407 19.5069 191.4 19.4944 191.395 19.4814C189.48 20.1129 187.552 20.6847 185.61 21.1969C182.86 21.9247 180.077 22.5646 177.271 23.0442C176.933 23.1016 176.595 23.1579 176.257 23.213C178.585 23.8159 180.929 24.6196 182.762 26.222C183.002 26.4289 183.222 26.6585 183.419 26.9076C183.535 27.0349 183.633 27.1775 183.711 27.3314C183.747 27.4393 183.75 27.5554 183.72 27.665C183.69 27.7747 183.628 27.873 183.542 27.9477C183.334 28.1655 183.02 28.2212 182.736 28.2668C182.35 28.3259 181.957 28.3259 181.571 28.2668C180.881 28.1437 180.212 27.9243 179.584 27.6151C178.94 27.328 178.285 27.0494 177.653 26.7353C176.977 26.3965 176.335 25.9915 175.739 25.5263C175.454 25.3162 175.194 25.0749 174.963 24.807C174.87 24.673 174.763 24.5495 174.642 24.4389C174.481 24.3341 174.337 24.2041 174.217 24.0539C174.166 23.9652 174.145 23.8621 174.158 23.7605C174.171 23.659 174.217 23.5645 174.289 23.4917L174.348 23.4444C173.358 23.5541 172.367 23.6369 171.373 23.6993C171.429 23.736 171.481 23.7772 171.529 23.8226C171.68 23.9711 171.792 24.1549 171.854 24.3574C171.917 24.5599 171.928 24.7748 171.887 24.9826C171.791 25.4892 171.4 25.8792 171.042 26.2102C170.624 26.6018 170.184 26.9699 169.725 27.3128C168.738 28.0304 167.638 28.5708 166.552 29.1195C166.454 29.1722 166.341 29.1896 166.232 29.1686C166.123 29.1477 166.025 29.0898 165.954 29.0047C165.934 29.0402 165.915 29.0773 165.898 29.1145C168.348 29.7004 170.807 30.2542 173.279 30.749C176.538 31.4025 179.824 31.931 183.108 32.451C183.511 32.5152 183.915 32.5777 184.319 32.6385L184.336 32.6199C184.301 32.6587 184.351 32.5979 184.355 32.5929C184.376 32.5632 184.395 32.5321 184.412 32.5C184.512 32.3311 184.612 32.1623 184.723 32.0086C185.175 31.3917 185.693 30.8255 186.267 30.3201C186.82 29.8135 187.396 29.3289 187.921 28.8004C188.491 28.2212 189.002 27.5914 189.558 27.0021C190.059 26.4558 190.617 25.965 191.222 25.5382C191.537 25.3254 191.964 25.1532 192.327 25.344C192.648 25.5128 192.758 25.886 192.748 26.2254C192.726 26.9582 192.271 27.6742 191.876 28.2668C191.409 28.9549 190.854 29.5792 190.226 30.1242C188.942 31.2539 187.445 32.0863 185.943 32.8867C188.281 33.2307 190.636 33.4438 192.998 33.5249C199.522 33.6938 205.995 31.9073 212.205 30.0989C212.792 29.9289 213.374 29.7522 213.953 29.5687C213.977 29.4286 214.001 29.2884 214.028 29.1516C214.109 28.7498 214.183 28.3479 214.269 27.946C214.436 27.1856 214.683 26.4448 215.004 25.7357C215.285 25.111 215.584 24.493 215.862 23.8665C216.124 23.2806 216.435 22.6271 216.939 22.2084C217.057 22.0998 217.201 22.0227 217.357 21.9841C217.513 21.9455 217.677 21.9465 217.832 21.9872C218.102 22.0869 218.329 22.2758 218.476 22.5224C218.783 23.0131 218.963 23.5725 219 24.1502C219.138 25.5854 218.388 26.9093 217.479 27.9511C217.29 28.1672 217.092 28.3817 216.893 28.5927C218.375 28.0535 219.848 27.4766 221.312 26.862C222.137 26.5243 222.956 26.1612 223.769 25.7897C223.789 25.3051 223.847 24.829 223.906 24.3427C223.987 23.6841 224.017 23.0222 224.103 22.3654C224.197 21.7218 224.326 21.0837 224.489 20.454C224.619 19.8521 224.827 19.2693 225.105 18.7198C225.369 18.2369 225.96 17.526 226.58 17.8553C226.811 17.9753 227.006 18.1556 227.143 18.3771C227.296 18.6455 227.298 18.9799 227.339 19.2787C227.512 20.5845 227.323 21.9127 226.793 23.1185C226.555 23.6742 226.273 24.2095 225.948 24.7192C227.074 24.1004 228.168 23.4241 229.224 22.693C229.438 22.546 229.661 22.4107 229.89 22.2877C229.899 22.2556 229.912 22.2249 229.93 22.1965C230.166 21.8771 230.429 21.5783 230.716 21.3033C230.949 21.0483 231.168 20.7815 231.391 20.5215C231.808 20.0252 232.289 19.5863 232.821 19.2163C233.423 18.8327 234.065 18.5152 234.735 18.269C235.431 17.9765 236.176 17.8161 236.931 17.7962C237.031 17.7982 237.128 17.832 237.208 17.8927C237.287 17.9535 237.345 18.0379 237.374 18.1339C237.427 18.3072 237.435 18.4912 237.397 18.6685C237.359 18.8458 237.277 19.0105 237.157 19.147C236.941 19.4307 236.722 19.7127 236.492 19.9913C236.053 20.5293 235.541 21.0039 234.971 21.4012C233.899 22.1341 232.626 22.5005 231.39 22.8517C231.329 22.8711 231.264 22.8765 231.2 22.8674C231.137 22.8584 231.076 22.8351 231.023 22.7993C230.445 22.9564 229.93 23.3228 229.447 23.6622C228.878 24.0624 228.308 24.4507 227.707 24.8053C227.2 25.1059 226.681 25.3879 226.158 25.6597C227.141 25.5953 228.129 25.6315 229.106 25.7678C230.236 25.9367 231.408 26.2997 232.29 27.0595C232.687 27.3972 233.189 27.8717 233.177 28.4391C233.165 29.0419 232.635 29.3475 232.098 29.3931C231.877 29.405 231.655 29.3931 231.437 29.3576C231.123 29.3171 230.93 29.2985 230.608 29.2344C229.915 29.0779 229.236 28.8667 228.577 28.6029C227.82 28.3259 227.068 28.0372 226.323 27.7282C225.578 27.4192 224.767 27.1051 224.014 26.7472C223.995 26.7373 223.978 26.726 223.961 26.7134C223.813 26.7792 223.664 26.8468 223.514 26.9126C221.385 27.8548 219.231 28.7261 217.038 29.5012C217.763 29.4702 218.49 29.4899 219.212 29.5603C219.949 29.6326 220.678 29.7716 221.39 29.9756C222.057 30.1486 222.698 30.408 223.297 30.7473C223.582 30.889 223.837 31.0852 224.046 31.3248C224.211 31.5517 224.295 31.8278 224.284 32.1083C224.288 32.2122 224.266 32.3156 224.219 32.4084C224.172 32.5012 224.102 32.5805 224.015 32.6385C223.866 32.7438 223.704 32.8295 223.532 32.8934C223.222 33.0032 222.892 33.0441 222.564 33.0133C222.211 32.9931 221.855 32.9998 221.5 32.9795C221.127 32.9546 220.756 32.91 220.388 32.8462C219.678 32.7235 218.979 32.5416 218.299 32.3024C217.543 32.0407 216.815 31.7047 216.077 31.4008C215.533 31.1779 214.977 30.9989 214.418 30.83C214.393 30.841 214.368 30.8501 214.342 30.8571C214.248 30.8797 214.148 30.8731 214.058 30.8381C213.967 30.8031 213.89 30.7414 213.835 30.6612C213.782 30.6492 213.73 30.6322 213.68 30.6105C210.828 31.4835 207.936 32.2552 205.035 32.939C201.977 33.66 198.867 34.224 195.726 34.3945C196.903 34.6591 198.073 34.9366 199.237 35.227C200.389 35.5174 201.524 35.8568 202.663 36.1928L202.705 36.1709C203.043 35.9885 203.346 35.7336 203.68 35.5394C204.029 35.3525 204.387 35.1835 204.753 35.0328C205.125 34.8579 205.487 34.6605 205.836 34.4418C206.498 34.0145 207.203 33.6563 207.939 33.373C208.705 33.1005 209.498 32.9114 210.304 32.809C210.505 32.7862 210.708 32.7862 210.909 32.809C211.101 32.8055 211.29 32.8521 211.458 32.9441C211.572 33.0154 211.666 33.1152 211.729 33.2336C211.793 33.3521 211.825 33.4851 211.821 33.6195C211.803 34.0906 211.418 34.4908 211.093 34.8015C210.188 35.6153 209.123 36.2318 207.966 36.6116C207.363 36.8199 206.748 36.9891 206.123 37.1182C207.535 37.4339 208.965 37.6619 210.401 37.8527C212.323 38.1093 214.249 38.3204 216.188 38.4116C217.371 38.4656 218.542 38.4791 219.719 38.4707C219.793 38.2797 219.916 38.1118 220.076 37.9844C220.684 37.4677 221.186 36.8463 221.738 36.2722C222.318 35.6733 222.917 35.0925 223.536 34.5296C224.718 33.4557 225.965 32.3902 227.474 31.8026C227.847 31.6484 228.235 31.5297 228.631 31.448C229.055 31.3687 229.457 31.2488 229.893 31.3197C230.119 31.3425 230.334 31.4279 230.515 31.5662C230.665 31.7165 230.695 32.0019 230.692 32.2062C230.674 32.589 230.506 32.9494 230.224 33.2092C229.944 33.4996 229.702 33.8052 229.422 34.0839C229.141 34.3625 228.857 34.6343 228.56 34.8893C227.908 35.4393 227.227 35.9533 226.519 36.4292C225.398 37.1988 224.209 37.8635 222.966 38.415C223.642 38.3947 224.33 38.3744 225.011 38.3592C225.502 38.3491 225.994 38.3356 226.484 38.2951C226.94 38.2596 227.396 38.1262 227.856 38.165C228.003 38.1776 228.149 38.2019 228.293 38.2377C228.345 38.2126 228.402 38.1982 228.46 38.1953C228.518 38.1924 228.576 38.201 228.631 38.2208C229.445 38.1532 230.258 38.084 231.072 37.9945C232.052 37.8864 233.032 37.7801 234.015 37.7024C234.671 37.629 235.333 37.6188 235.992 37.672C236.686 37.7497 237.49 37.954 237.887 38.5838C238.284 39.2136 237.803 39.8266 237.242 40.1373C236.595 40.4834 235.902 40.7348 235.184 40.8836C234.262 41.0711 233.308 41.0287 232.407 40.7603C231.56 40.5031 230.732 40.1883 229.928 39.8181C229.53 39.6493 229.129 39.4804 228.72 39.3403C228.552 39.2795 228.383 39.2204 228.214 39.1714C228.182 39.1714 228.149 39.1714 228.117 39.1714C228.035 39.1699 227.954 39.146 227.884 39.1022C227.759 39.0841 227.632 39.0796 227.506 39.0887C227.007 39.1275 226.519 39.2187 226.017 39.2423C225.516 39.266 225.004 39.271 224.497 39.2829C223.536 39.3031 222.576 39.3285 221.615 39.347C221.902 39.5339 222.184 39.7264 222.46 39.9245C223.108 40.3669 223.696 40.8933 224.206 41.4898C224.699 42.073 225.118 42.7144 225.455 43.3995C225.541 43.5768 225.624 43.7592 225.696 43.9415L225.729 44.0226L225.744 44.0564L225.833 44.264C225.974 44.5626 226.087 44.8735 226.171 45.1927C226.261 45.5185 226.248 45.8642 226.134 46.1822C226.063 46.3346 225.962 46.4712 225.837 46.584C225.712 46.6968 225.566 46.7835 225.408 46.8391C224.826 47.0772 224.146 47.0079 223.549 46.9184C222.915 46.8291 222.331 46.5216 221.899 46.0488C221.382 45.4319 220.929 44.7644 220.547 44.0564C220.072 43.2425 219.609 42.4269 219.182 41.5894C218.969 41.1706 218.697 40.7738 218.52 40.3382C218.44 40.1664 218.387 39.9837 218.361 39.7962C218.351 39.6867 218.364 39.5764 218.398 39.472C218.408 39.4399 218.424 39.4078 218.437 39.374H218.348C216.341 39.353 214.338 39.2245 212.345 38.9891C210.368 38.756 208.387 38.4926 206.432 38.0772C205.598 37.8999 204.773 37.6787 203.955 37.4424C203.73 37.4558 203.505 37.4558 203.28 37.4424C203.28 37.4424 203.268 37.4424 203.261 37.4424C203.303 37.4964 203.346 37.5487 203.398 37.6112C203.522 37.7875 203.637 37.9701 203.743 38.1583C204.036 38.6387 204.305 39.1341 204.547 39.6425C205.037 40.6479 205.4 41.7103 205.628 42.8052C205.78 43.565 205.935 44.416 205.797 45.1894C205.766 45.3907 205.694 45.5835 205.585 45.7555C205.476 45.9275 205.332 46.0751 205.163 46.189C204.976 46.2987 204.766 46.3651 204.549 46.3832C204.333 46.4013 204.115 46.3707 203.911 46.2937C203.126 46.0083 202.523 45.2654 202.136 44.5494C201.556 43.462 201.501 42.231 201.646 41.0356ZM184.804 34.3135C184.926 34.6411 185.058 34.967 185.194 35.2912C185.492 35.9902 185.803 36.6836 186.129 37.3714C186.404 37.9557 186.693 38.5348 186.989 39.1106C187.232 39.6307 187.525 40.1265 187.862 40.5915C188.05 40.8243 188.263 41.036 188.497 41.223C188.575 41.2944 188.671 41.3429 188.774 41.3631C188.878 41.3834 188.985 41.3746 189.084 41.3378C189.165 41.2456 189.237 41.1455 189.298 41.0389C189.361 40.8661 189.389 40.6824 189.381 40.4986C189.385 40.126 189.317 39.7561 189.18 39.4095C188.913 38.7437 188.573 38.1094 188.166 37.5183C187.442 36.3706 186.494 35.3801 185.379 34.6056C185.178 34.4722 184.98 34.3371 184.774 34.2156C184.781 34.2476 184.791 34.2814 184.804 34.3135ZM208.677 9.06985C209.1 8.47642 209.488 7.85969 209.841 7.22258C210.179 6.61133 210.568 5.96969 210.72 5.27907C210.802 5.018 210.802 4.73809 210.72 4.47702C210.693 4.3954 210.649 4.32052 210.591 4.25754C210.533 4.19457 210.461 4.14501 210.382 4.1123C210.285 4.09517 210.185 4.09961 210.089 4.12528C209.994 4.15095 209.905 4.19724 209.829 4.26089C209.623 4.4062 209.439 4.58214 209.285 4.78264C208.491 5.74511 208.132 6.98956 207.846 8.18167C207.677 8.91788 207.52 9.65914 207.312 10.3886C207.273 10.5237 207.231 10.6571 207.187 10.7905C207.738 10.266 208.237 9.6898 208.677 9.06985ZM217.312 5.7468C217.87 5.44445 218.399 5.09057 218.891 4.68978C219.415 4.28328 219.913 3.84453 220.382 3.37609C220.824 2.95649 221.209 2.48012 221.527 1.95941C221.656 1.74355 221.731 1.49962 221.745 1.24853C221.751 1.13824 221.736 1.02782 221.703 0.922647V0.907451H221.65C221.65 0.907451 221.586 0.919268 221.561 0.926022C221.519 0.938129 221.478 0.952792 221.437 0.969926C221.427 0.969926 221.356 1.00876 221.345 1.01551C221.302 1.03747 221.262 1.05942 221.221 1.08306C221.128 1.13799 221.038 1.19773 220.951 1.26204C219.895 2.02188 218.819 2.89824 218.052 3.9637C217.611 4.57158 217.234 5.22335 216.766 5.81097C216.678 5.92241 216.585 6.0271 216.493 6.13347C216.771 6.00515 217.047 5.88526 217.312 5.7468ZM213.35 12.5229C213.993 12.5969 214.642 12.6161 215.288 12.5803C215.825 12.5347 216.471 12.4115 216.915 12.0738C216.932 12.0599 216.948 12.0446 216.962 12.0282C216.915 11.9995 216.852 11.9353 216.812 11.91C216.59 11.7771 216.348 11.6796 216.096 11.6212C215.564 11.5082 215.021 11.4639 214.479 11.4895C213.862 11.498 213.247 11.498 212.632 11.5064C211.837 11.5043 211.043 11.5607 210.257 11.6753C209.813 11.7479 209.372 11.8441 208.936 11.9454C209.008 11.9606 209.081 11.9775 209.154 11.991C209.829 12.1295 210.515 12.2342 211.203 12.3169C211.916 12.3929 212.634 12.4621 213.35 12.5229ZM193.655 17.4197C194.288 16.7619 194.858 16.0462 195.358 15.282C196.179 13.997 196.625 12.5398 196.902 11.0505L196.96 10.7128L196.98 10.5743L196.997 10.4308C197.025 10.1859 197.036 9.93933 197.029 9.69291C197.029 9.63382 197.029 9.57303 197.017 9.51393L197.007 9.45483C196.997 9.40924 196.987 9.36365 196.973 9.31806L196.956 9.26571L196.912 9.21506C196.917 9.21602 196.921 9.21602 196.926 9.21506L196.944 9.23194L196.927 9.21506H196.907C196.899 9.21619 196.891 9.21619 196.884 9.21506L196.894 9.22519C196.881 9.22608 196.868 9.22608 196.855 9.22519C196.846 9.22519 196.84 9.22519 196.828 9.23363C196.769 9.24843 196.712 9.27055 196.659 9.29948C196.514 9.38886 196.386 9.50319 196.28 9.63719C196.041 9.93574 195.833 10.2583 195.66 10.5997C195.179 11.4427 194.768 12.3237 194.431 13.2338C194.064 14.2859 193.755 15.3568 193.503 16.442C193.376 16.9486 193.253 17.4669 193.116 17.9752C193.305 17.7827 193.486 17.602 193.655 17.4214V17.4197ZM193.922 19.9727C194.576 20.3272 195.262 20.6194 195.971 20.8457C197.441 21.3033 198.948 21.8031 200.495 21.8909C200.886 21.9129 201.278 21.9061 201.668 21.8707C201.788 21.8769 201.909 21.8769 202.029 21.8707C202.038 21.864 202.046 21.8567 202.053 21.8487C202.068 21.8247 202.085 21.8021 202.104 21.7812C202.149 21.6782 202.134 21.6647 202.095 21.5448C202.056 21.4341 201.999 21.3304 201.926 21.2375C201.79 21.0487 201.629 20.8784 201.448 20.7309C200.534 19.9542 199.195 19.7566 198.048 19.5945C196.33 19.3602 194.592 19.3036 192.863 19.4256L192.93 19.4645C193.268 19.635 193.596 19.8022 193.922 19.9744V19.9727ZM175.406 22.6001C175.957 22.1695 176.504 21.7356 177.021 21.2628C177.796 20.5609 178.505 19.79 179.14 18.9596C180.173 17.6172 180.953 16.0981 181.442 14.4765C181.49 14.3077 181.532 14.1523 181.566 13.9886C181.583 13.9075 181.598 13.8197 181.61 13.7437V13.6981C181.61 13.6508 181.618 13.6036 181.62 13.5546C181.621 13.5056 181.61 13.3858 181.62 13.3858L181.604 13.3199L181.596 13.3064L181.574 13.2929H181.561C181.534 13.2844 181.493 13.2929 181.517 13.2929C181.508 13.292 181.5 13.292 181.491 13.2929H181.461C181.437 13.2941 181.413 13.297 181.39 13.3013C181.329 13.3182 181.268 13.3334 181.207 13.3554C181.179 13.3655 181.152 13.3756 181.123 13.3874C181.094 13.3993 181.027 13.433 181.015 13.4381C180.868 13.5129 180.726 13.5958 180.589 13.6863C180.525 13.7285 180.461 13.7724 180.398 13.8163C180.336 13.8602 180.324 13.8687 180.287 13.8974L180.187 13.9717C178.948 14.9055 177.885 16.0531 177.05 17.3606C176.089 18.9578 175.507 20.7535 175.347 22.6102C175.36 22.6069 175.384 22.6035 175.406 22.6018V22.6001ZM175.575 24.0961C175.76 24.3217 175.968 24.5276 176.195 24.7108C176.664 25.0852 177.165 25.4174 177.692 25.7036C178.261 26.0261 178.874 26.2676 179.461 26.5479C180.028 26.8307 180.619 27.063 181.228 27.2419C181.558 27.333 181.899 27.3784 182.241 27.377C182.36 27.3742 182.479 27.3629 182.596 27.3432C182.256 26.9677 181.87 26.6364 181.447 26.3571C180.844 25.9426 180.207 25.5794 179.543 25.2714C178.237 24.6686 176.84 24.2937 175.445 23.9509L175.575 24.0961ZM169.393 26.4078C169.833 26.0768 170.247 25.7133 170.632 25.3203C170.788 25.1827 170.908 25.0087 170.981 24.8138C171.008 24.7108 170.997 24.7344 170.973 24.6112V24.5858C170.96 24.5605 170.924 24.5115 170.926 24.5082C170.911 24.4947 170.897 24.4801 170.885 24.4643C170.855 24.4491 170.823 24.4305 170.792 24.4119C170.779 24.4066 170.765 24.4021 170.752 24.3984C170.713 24.3866 170.672 24.3781 170.632 24.368C170.62 24.3672 170.608 24.3672 170.596 24.368C170.508 24.3601 170.42 24.3573 170.331 24.3596C170.247 24.3596 170.162 24.3663 170.078 24.3798C170.059 24.3798 170.022 24.3883 170.007 24.3916C169.949 24.4018 169.89 24.4136 169.838 24.4271C169.635 24.4723 169.436 24.5287 169.24 24.596C169.152 24.6263 169.071 24.6567 168.981 24.6905C168.932 24.7091 168.883 24.7277 168.834 24.7479L168.807 24.7581L168.762 24.7783C168.593 24.8509 168.434 24.9286 168.277 25.013C168.154 25.0783 168.035 25.1498 167.92 25.2275L167.905 25.2376C167.854 25.2815 167.805 25.3271 167.758 25.3761C167.684 25.4572 167.617 25.5454 167.56 25.6395C167.4 25.9018 167.258 26.1749 167.135 26.4567C166.993 26.7607 166.836 27.0595 166.699 27.3668C166.574 27.6438 166.461 27.9258 166.346 28.2111C167.375 27.6657 168.434 27.1254 169.393 26.4078ZM165.244 28.3597C165.374 28.1149 165.466 27.8531 165.572 27.588C165.788 27.068 166.031 26.5749 166.271 26.0582C166.453 25.6283 166.685 25.2218 166.964 24.8475C167.371 24.341 168.017 24.0641 168.606 23.8344C168.623 23.8344 168.64 23.8226 168.655 23.8158C165.705 23.8885 162.754 23.9003 159.803 23.9695C156.882 24.037 153.962 24.1384 151.041 24.2279C149.944 24.2594 148.847 24.2864 147.749 24.3089C149.791 24.9978 151.861 25.6023 153.949 26.1562C157.138 27.0004 160.352 27.7603 163.556 28.5505L163.643 28.5708C163.723 28.51 163.821 28.4758 163.921 28.4728C164.008 28.4714 164.093 28.4959 164.166 28.5431C164.238 28.5904 164.295 28.6582 164.329 28.7379L164.977 28.895C165.052 28.7114 165.141 28.5341 165.244 28.3648V28.3597ZM165.244 29.9267C164.927 29.8524 164.611 29.7764 164.295 29.7021C164.261 29.8567 164.253 30.0159 164.271 30.1732C164.348 30.5662 164.461 30.9511 164.609 31.3231C164.928 32.245 165.239 33.1805 165.623 34.0703C166.312 35.6964 167.26 37.4474 168.821 38.3761C168.934 38.4453 169.05 38.5078 169.169 38.5669C169.236 38.599 169.304 38.6311 169.371 38.6598C169.371 38.6598 169.496 38.7071 169.525 38.7172C169.61 38.7465 169.696 38.7708 169.784 38.7898C169.799 38.7908 169.815 38.7908 169.831 38.7898C169.831 38.7898 169.875 38.7898 169.897 38.7898C169.819 38.2748 169.763 37.7598 169.718 37.2397C169.652 36.7158 169.512 36.204 169.3 35.72C168.915 34.7289 168.312 33.8458 167.692 32.9897C167.368 32.5405 167.032 32.0998 166.722 31.6389C166.432 31.1975 166.1 30.7847 165.731 30.4062C165.629 30.3066 165.499 30.2374 165.401 30.131C165.344 30.0686 165.29 30.002 165.243 29.9317L165.244 29.9267ZM188.972 29.9267C189.562 29.4784 190.104 28.969 190.587 28.407C191.043 27.8872 191.415 27.2999 191.69 26.6661C191.741 26.5477 191.779 26.4243 191.803 26.298V26.2305C191.717 26.2813 191.634 26.3377 191.555 26.3993C190.999 26.8352 190.48 27.317 190.004 27.8396C189.506 28.385 189.033 28.9558 188.512 29.4792C187.992 30.0027 187.477 30.4349 186.958 30.9094C186.685 31.1593 186.413 31.416 186.157 31.6861C187.139 31.1767 188.079 30.5918 188.97 29.9368L188.972 29.9267ZM234.285 20.7478C234.773 20.4367 235.213 20.0568 235.591 19.6198C235.799 19.3885 235.997 19.1487 236.188 18.9022L236.291 18.7722C235.834 18.8561 235.387 18.9885 234.958 19.1673C234.356 19.3955 233.782 19.6906 233.246 20.047C232.788 20.3874 232.374 20.7846 232.015 21.229C231.829 21.4468 231.643 21.6646 231.452 21.8791C232.434 21.592 233.415 21.2898 234.285 20.7478ZM224.825 24.7581C225.139 24.3229 225.418 23.8632 225.659 23.3836C226.168 22.455 226.452 21.4206 226.49 20.3628C226.495 20.0677 226.479 19.7726 226.443 19.4797C226.428 19.3615 226.404 19.2433 226.386 19.1234C226.379 19.0287 226.366 18.9345 226.347 18.8414C226.347 18.8414 226.294 18.784 226.246 18.7367C226.08 18.8859 225.947 19.0675 225.855 19.2703C225.641 19.7523 225.477 20.2554 225.367 20.7714C225.237 21.3117 225.103 21.8588 225.029 22.4093C224.941 23.0509 224.916 23.6993 224.84 24.3427L224.784 24.8256C224.796 24.8036 224.813 24.7817 224.828 24.7581H224.825ZM228.035 27.5289C229.165 27.9764 230.282 28.4053 231.491 28.5877C231.65 28.6128 231.811 28.6247 231.973 28.6231C232.048 28.6259 232.124 28.6168 232.197 28.5961C232.229 28.5923 232.259 28.5817 232.286 28.5651C232.312 28.5484 232.335 28.5262 232.353 28.4999C232.393 28.4374 232.319 28.2972 232.248 28.2027C232.1 28.0256 231.937 27.8622 231.76 27.7147C231.03 27.0663 229.982 26.7995 229.043 26.6408C227.924 26.4788 226.791 26.4437 225.664 26.5361C226.458 26.8856 227.251 27.2149 228.043 27.5289H228.035ZM215.182 28.9406C215.663 28.4999 216.112 28.0203 216.562 27.5475C217.33 26.7353 218.043 25.7155 218.082 24.5588C218.092 24.2745 218.061 23.9903 217.991 23.7145C217.967 23.6267 217.942 23.5457 217.912 23.4545L217.864 23.3296L217.854 23.3042L217.819 23.2299C217.775 23.1405 217.725 23.0542 217.67 22.9716V22.9598L217.63 22.9125L217.586 22.8703L217.567 22.8804C217.555 22.8905 217.499 22.9429 217.457 22.9868C217.074 23.3937 216.839 23.934 216.612 24.4406C216.369 24.9961 216.106 25.5398 215.852 26.092C215.548 26.7612 215.317 27.4616 215.165 28.1807C215.095 28.5015 215.035 28.8241 214.97 29.1466C215.031 29.0773 215.107 29.0115 215.182 28.9406ZM217.793 31.1272C219.011 31.622 220.327 32.0221 221.657 32.0627C222.029 32.0745 222.402 32.0998 222.774 32.1032C222.971 32.1027 223.165 32.054 223.34 31.9614C223.34 31.9225 223.352 31.9614 223.321 31.9124C223.307 31.882 223.287 31.8545 223.262 31.8313C223.07 31.6741 222.859 31.5419 222.634 31.4379C222.097 31.1658 221.53 30.9599 220.944 30.825C219.708 30.5061 218.432 30.3735 217.156 30.4315C216.851 30.4315 216.547 30.4586 216.241 30.4788C216.763 30.6899 217.273 30.9178 217.793 31.1272ZM204.776 36.4461C205.585 36.3357 206.384 36.1583 207.164 35.9159C208.346 35.5495 209.481 35.0328 210.406 34.1919C210.497 34.1092 210.586 34.0231 210.669 33.9336C210.713 33.888 210.754 33.8407 210.792 33.7934L210.84 33.7225C210.677 33.7057 210.514 33.7057 210.352 33.7225C210.042 33.763 209.735 33.8221 209.432 33.8914C208.888 34.0161 208.354 34.1855 207.838 34.3979C207.326 34.6276 206.834 34.8969 206.365 35.2034C205.883 35.4993 205.383 35.7628 204.866 35.9919C204.52 36.1497 204.185 36.3325 203.866 36.539C204.167 36.5187 204.469 36.4866 204.776 36.4461ZM224.894 36.3701C226.217 35.6018 227.449 34.6858 228.565 33.6398C228.873 33.3394 229.167 33.0238 229.444 32.6942C229.612 32.5034 229.738 32.397 229.765 32.2315C229.477 32.1792 229.197 32.2754 228.905 32.3295C228.52 32.4065 228.143 32.5195 227.779 32.6672C227.076 32.9525 226.416 33.335 225.818 33.8036C224.532 34.8019 223.332 35.9049 222.228 37.1013C221.929 37.4153 221.637 37.7362 221.35 38.0604C222.586 37.6193 223.773 37.053 224.894 36.3701ZM219.371 39.3774C219.369 39.4455 219.358 39.513 219.339 39.5784L219.27 39.7472C219.27 39.7624 219.287 39.8215 219.294 39.8418C219.316 39.911 219.341 39.9802 219.37 40.0478C219.522 40.4125 219.756 40.7502 219.934 41.1048C220.304 41.8461 220.699 42.5671 221.106 43.2881C221.475 43.997 221.901 44.6747 222.38 45.3143C222.547 45.5369 222.754 45.7265 222.99 45.8732C223.233 45.9965 223.496 46.0749 223.767 46.1046C224.042 46.1464 224.321 46.1606 224.598 46.1468C224.722 46.1401 224.845 46.1185 224.963 46.0826C224.989 46.0826 225.09 46.0404 225.073 46.0471C225.102 46.0353 225.13 46.0184 225.159 46.0032C225.188 45.988 225.259 45.9256 225.222 45.9593C225.277 45.9104 225.276 45.9087 225.294 45.8682C225.267 45.9273 225.313 45.7989 225.316 45.7804C225.318 45.7393 225.318 45.6982 225.316 45.6571C225.316 45.6002 225.309 45.5436 225.296 45.4882C225.229 45.2107 225.135 44.9403 225.016 44.6811C224.756 44.0511 224.444 43.4439 224.083 42.8659C223.687 42.2666 223.213 41.7227 222.674 41.2483C222.073 40.7181 221.372 40.3213 220.714 39.8688C220.545 39.7523 220.376 39.6273 220.223 39.499C220.174 39.4585 220.118 39.4163 220.062 39.3724C219.834 39.3774 219.603 39.3774 219.371 39.3774ZM234.757 38.5652C233.279 38.6446 231.807 38.8388 230.336 39.0009C231.087 39.3459 231.861 39.6392 232.652 39.8789C233.47 40.121 234.337 40.1425 235.166 39.9414C235.549 39.8415 235.926 39.7174 236.294 39.5699C236.343 39.5513 236.39 39.5328 236.439 39.5125C236.439 39.5125 236.539 39.4686 236.558 39.4602C236.689 39.4007 236.817 39.3312 236.938 39.2525C236.962 39.2377 236.986 39.2213 237.009 39.2035L237.027 39.1866L237.097 39.1258C237.108 39.1119 237.118 39.0972 237.127 39.0819V39.0701C237.109 39.0499 237.092 39.0285 237.076 39.0059C237.051 38.9789 236.956 38.8962 236.972 38.908C236.865 38.8286 236.746 38.766 236.62 38.7223C236.029 38.5129 235.385 38.5264 234.757 38.5652ZM203.775 45.1894C203.933 45.3299 204.124 45.4281 204.33 45.4747C204.404 45.4881 204.48 45.4835 204.552 45.4615C204.624 45.4395 204.689 45.4006 204.743 45.3481C204.743 45.3363 204.793 45.2755 204.805 45.2552L204.82 45.2231C204.828 45.2038 204.835 45.1841 204.841 45.164C204.858 45.1134 204.869 45.0627 204.881 45.0121L204.898 44.9209V44.8804C204.916 44.6402 204.914 44.399 204.89 44.1594C204.754 42.8014 204.386 41.4768 203.802 40.2436C203.543 39.6873 203.252 39.1461 202.932 38.6226C202.893 38.9772 202.832 39.3301 202.773 39.6797C202.629 40.4004 202.533 41.1297 202.484 41.8629C202.437 43.1125 202.807 44.3704 203.775 45.1894Z" fill="white"/>
<path d="M65.6921 101.392H60.25L53.3496 91.8614C52.8385 91.8814 52.4225 91.8914 52.1018 91.8914C51.9715 91.8914 51.8312 91.8914 51.6809 91.8914C51.5306 91.8814 51.3752 91.8714 51.2148 91.8614V97.7843C51.2148 99.0671 51.3552 99.8638 51.6358 100.174C52.0166 100.615 52.5879 100.836 53.3496 100.836H54.1464V101.392H45.4119V100.836H46.1786C47.0405 100.836 47.6569 100.555 48.0277 99.9941C48.2382 99.6834 48.3435 98.9468 48.3435 97.7843V84.6156C48.3435 83.3328 48.2031 82.5361 47.9225 82.2254C47.5316 81.7844 46.9503 81.5639 46.1786 81.5639H45.4119V81.0077H52.8385C55.0033 81.0077 56.5968 81.1681 57.6191 81.4888C58.6514 81.7994 59.5234 82.3807 60.2349 83.2326C60.9566 84.0744 61.3174 85.0816 61.3174 86.2542C61.3174 87.5069 60.9064 88.5943 60.0846 89.5163C59.2728 90.4383 58.01 91.0897 56.2962 91.4705L60.5055 97.3183C61.4677 98.6612 62.2945 99.5531 62.9861 99.9941C63.6776 100.435 64.5796 100.716 65.6921 100.836V101.392ZM51.2148 90.9143C51.4053 90.9143 51.5706 90.9193 51.711 90.9293C51.8513 90.9293 51.9665 90.9293 52.0567 90.9293C54.0011 90.9293 55.4643 90.5084 56.4465 89.6666C57.4387 88.8248 57.9348 87.7524 57.9348 86.4496C57.9348 85.1768 57.5339 84.1446 56.7321 83.3528C55.9404 82.5511 54.888 82.1502 53.5751 82.1502C52.9938 82.1502 52.2071 82.2454 51.2148 82.4358V90.9143Z" fill="white"/>
<path d="M76.6816 80.5417C79.3275 80.5417 81.6176 81.5489 83.5519 83.5633C85.4962 85.5677 86.4684 88.0731 86.4684 91.0797C86.4684 94.1764 85.4912 96.747 83.5369 98.7915C81.5825 100.836 79.2172 101.858 76.441 101.858C73.6348 101.858 71.2745 100.861 69.3603 98.8666C67.456 96.8723 66.5039 94.2917 66.5039 91.1248C66.5039 87.8877 67.6064 85.247 69.8113 83.2025C71.7255 81.4286 74.0156 80.5417 76.6816 80.5417ZM76.3959 81.6391C74.5719 81.6391 73.1086 82.3156 72.0062 83.6685C70.6331 85.3522 69.9466 87.8176 69.9466 91.0646C69.9466 94.3919 70.6582 96.9525 72.0813 98.7464C73.1738 100.109 74.617 100.791 76.411 100.791C78.3252 100.791 79.9038 100.044 81.1465 98.551C82.3993 97.0577 83.0257 94.7026 83.0257 91.4856C83.0257 87.998 82.3392 85.3973 80.9661 83.6836C79.8637 82.3206 78.3403 81.6391 76.3959 81.6391Z" fill="white"/>
<path d="M101.788 80.5417V87.5921H101.231C101.051 86.2391 100.725 85.1618 100.254 84.36C99.7931 83.5583 99.1316 82.9219 98.2697 82.4509C97.4078 81.9798 96.5158 81.7443 95.5937 81.7443C94.5514 81.7443 93.6895 82.065 93.008 82.7064C92.3264 83.3378 91.9857 84.0594 91.9857 84.8711C91.9857 85.4925 92.2012 86.0587 92.6321 86.5698C93.2535 87.3215 94.7318 88.3237 97.067 89.5764C98.9712 90.5986 100.269 91.3853 100.961 91.9365C101.662 92.4777 102.198 93.1191 102.569 93.8607C102.95 94.6023 103.141 95.379 103.141 96.1908C103.141 97.7342 102.539 99.0671 101.337 100.19C100.144 101.302 98.6054 101.858 96.7212 101.858C96.1299 101.858 95.5737 101.813 95.0525 101.723C94.7418 101.673 94.0954 101.492 93.1132 101.182C92.141 100.861 91.5246 100.701 91.2641 100.701C91.0135 100.701 90.8131 100.776 90.6627 100.926C90.5224 101.076 90.4172 101.387 90.347 101.858H89.7908V94.8679H90.347C90.6076 96.3311 90.9584 97.4285 91.3994 98.1601C91.8404 98.8817 92.5118 99.483 93.4139 99.964C94.3259 100.445 95.3231 100.686 96.4055 100.686C97.6583 100.686 98.6455 100.355 99.3671 99.6934C100.099 99.032 100.465 98.2503 100.465 97.3483C100.465 96.8472 100.324 96.3411 100.044 95.83C99.773 95.3189 99.3471 94.8429 98.7658 94.4019C98.3749 94.1013 97.3075 93.4649 95.5636 92.4928C93.8198 91.5106 92.577 90.7289 91.8353 90.1476C91.1037 89.5664 90.5475 88.925 90.1666 88.2234C89.7858 87.5219 89.5954 86.7502 89.5954 85.9084C89.5954 84.4452 90.1566 83.1875 91.2791 82.1352C92.4016 81.0729 93.8298 80.5417 95.5636 80.5417C96.6461 80.5417 97.7936 80.8073 99.0063 81.3384C99.5676 81.589 99.9634 81.7143 100.194 81.7143C100.455 81.7143 100.665 81.6391 100.825 81.4888C100.996 81.3284 101.131 81.0127 101.231 80.5417H101.788Z" fill="white"/>
<path d="M118.896 94.5673H111.003L109.62 97.7843C109.279 98.576 109.109 99.1673 109.109 99.5581C109.109 99.8688 109.254 100.144 109.545 100.385C109.845 100.615 110.487 100.766 111.469 100.836V101.392H105.05V100.836C105.902 100.686 106.453 100.49 106.703 100.25C107.215 99.7686 107.781 98.7915 108.402 97.3183L115.573 80.5417H116.099L123.195 97.4987C123.766 98.8616 124.283 99.7486 124.744 100.159C125.215 100.56 125.866 100.786 126.698 100.836V101.392H118.655V100.836C119.467 100.796 120.013 100.661 120.294 100.43C120.584 100.2 120.73 99.9189 120.73 99.5882C120.73 99.1473 120.529 98.4507 120.128 97.4987L118.896 94.5673ZM118.475 93.4548L115.017 85.2169L111.469 93.4548H118.475Z" fill="white"/>
<path d="M147.865 101.392H142.423L135.523 91.8614C135.012 91.8814 134.596 91.8914 134.275 91.8914C134.145 91.8914 134.004 91.8914 133.854 91.8914C133.704 91.8814 133.548 91.8714 133.388 91.8614V97.7843C133.388 99.0671 133.528 99.8638 133.809 100.174C134.19 100.615 134.761 100.836 135.523 100.836H136.319V101.392H127.585V100.836H128.352C129.214 100.836 129.83 100.555 130.201 99.9941C130.411 99.6834 130.517 98.9468 130.517 97.7843V84.6156C130.517 83.3328 130.376 82.5361 130.096 82.2254C129.705 81.7844 129.123 81.5639 128.352 81.5639H127.585V81.0077H135.012C137.176 81.0077 138.77 81.1681 139.792 81.4888C140.824 81.7994 141.696 82.3807 142.408 83.2326C143.13 84.0744 143.49 85.0816 143.49 86.2542C143.49 87.5069 143.08 88.5943 142.258 89.5163C141.446 90.4383 140.183 91.0897 138.469 91.4705L142.679 97.3183C143.641 98.6612 144.468 99.5531 145.159 99.9941C145.851 100.435 146.753 100.716 147.865 100.836V101.392ZM133.388 90.9143C133.578 90.9143 133.744 90.9193 133.884 90.9293C134.024 90.9293 134.14 90.9293 134.23 90.9293C136.174 90.9293 137.637 90.5084 138.62 89.6666C139.612 88.8248 140.108 87.7524 140.108 86.4496C140.108 85.1768 139.707 84.1446 138.905 83.3528C138.113 82.5511 137.061 82.1502 135.748 82.1502C135.167 82.1502 134.38 82.2454 133.388 82.4358V90.9143Z" fill="white"/>
<path d="M157.096 100.836V101.392H148.361V100.836H149.083C149.925 100.836 150.536 100.59 150.917 100.099C151.157 99.7786 151.278 99.0069 151.278 97.7843V84.6156C151.278 83.5833 151.213 82.9019 151.082 82.5711C150.982 82.3206 150.777 82.1051 150.466 81.9247C150.025 81.6842 149.564 81.5639 149.083 81.5639H148.361V81.0077H157.096V81.5639H156.359C155.527 81.5639 154.921 81.8095 154.54 82.3005C154.289 82.6212 154.164 83.3929 154.164 84.6156V97.7843C154.164 98.8165 154.229 99.498 154.36 99.8287C154.46 100.079 154.67 100.295 154.991 100.475C155.422 100.716 155.878 100.836 156.359 100.836H157.096Z" fill="white"/>
<path d="M169.107 80.5417C171.753 80.5417 174.043 81.5489 175.978 83.5633C177.922 85.5677 178.894 88.0731 178.894 91.0797C178.894 94.1764 177.917 96.747 175.963 98.7915C174.008 100.836 171.643 101.858 168.867 101.858C166.061 101.858 163.7 100.861 161.786 98.8666C159.882 96.8723 158.93 94.2917 158.93 91.1248C158.93 87.8877 160.032 85.247 162.237 83.2025C164.151 81.4286 166.442 80.5417 169.107 80.5417ZM168.822 81.6391C166.998 81.6391 165.535 82.3156 164.432 83.6685C163.059 85.3522 162.372 87.8176 162.372 91.0646C162.372 94.3919 163.084 96.9525 164.507 98.7464C165.6 100.109 167.043 100.791 168.837 100.791C170.751 100.791 172.33 100.044 173.572 98.551C174.825 97.0577 175.452 94.7026 175.452 91.4856C175.452 87.998 174.765 85.3973 173.392 83.6836C172.29 82.3206 170.766 81.6391 168.822 81.6391Z" fill="white"/>
<path d="M203.504 88.2685H209.818V88.8248C208.946 88.8949 208.3 89.0903 207.879 89.411C207.468 89.7217 206.822 90.6738 205.94 92.2673C205.058 93.8607 204.065 95.349 202.963 96.732C203.855 97.7743 204.652 98.5059 205.353 98.9268C206.055 99.3377 206.761 99.5431 207.473 99.5431C208.164 99.5431 208.751 99.3577 209.232 98.9869C209.713 98.6061 210.054 98.0499 210.254 97.3183L210.81 97.7241C210.44 99.1372 209.843 100.179 209.021 100.851C208.2 101.522 207.242 101.858 206.15 101.858C205.328 101.858 204.491 101.638 203.639 101.197C202.798 100.746 201.875 99.9891 200.873 98.9268C199.63 100.029 198.508 100.796 197.506 101.227C196.514 101.648 195.451 101.858 194.319 101.858C192.665 101.858 191.352 101.417 190.38 100.535C189.408 99.6534 188.922 98.6011 188.922 97.3784C188.922 96.1658 189.358 94.9581 190.23 93.7555C191.101 92.5429 192.74 91.2901 195.145 89.9973C194.674 88.955 194.354 88.1032 194.183 87.4417C194.013 86.7703 193.928 86.1289 193.928 85.5176C193.928 83.8038 194.559 82.496 195.822 81.594C196.804 80.8925 197.922 80.5417 199.174 80.5417C200.367 80.5417 201.339 80.8975 202.091 81.609C202.843 82.3106 203.218 83.1775 203.218 84.2097C203.218 85.272 202.853 86.204 202.121 87.0058C201.399 87.8075 200.117 88.6845 198.272 89.6365C199.545 91.9015 200.873 93.976 202.256 95.8601C204.02 93.7555 204.902 91.9816 204.902 90.5385C204.902 90.0775 204.752 89.6666 204.451 89.3058C204.231 89.0352 203.915 88.8749 203.504 88.8248V88.2685ZM197.761 88.6594C199.004 88.0681 199.931 87.3966 200.543 86.645C201.164 85.8934 201.475 85.0565 201.475 84.1345C201.475 83.413 201.249 82.8167 200.798 82.3456C200.357 81.8746 199.806 81.6391 199.144 81.6391C198.272 81.6391 197.611 81.9448 197.16 82.5561C196.719 83.1574 196.499 83.7487 196.499 84.33C196.499 84.821 196.584 85.3722 196.754 85.9836C196.924 86.5849 197.26 87.4768 197.761 88.6594ZM200.092 98.0549C198.769 96.2509 197.852 94.9331 197.34 94.1013C196.829 93.2694 196.268 92.2372 195.657 91.0045C194.454 91.696 193.547 92.4577 192.936 93.2895C192.334 94.1213 192.034 95.0233 192.034 95.9954C192.034 97.0677 192.379 98.0098 193.071 98.8215C193.762 99.6333 194.694 100.039 195.867 100.039C196.499 100.039 197.105 99.9139 197.686 99.6634C198.277 99.4128 199.079 98.8767 200.092 98.0549Z" fill="white"/>
<path d="M240.261 101.392H234.819L227.919 91.8614C227.407 91.8814 226.991 91.8914 226.671 91.8914C226.54 91.8914 226.4 91.8914 226.25 91.8914C226.099 91.8814 225.944 91.8714 225.784 91.8614V97.7843C225.784 99.0671 225.924 99.8638 226.205 100.174C226.586 100.615 227.157 100.836 227.919 100.836H228.715V101.392H219.981V100.836H220.748C221.609 100.836 222.226 100.555 222.597 99.9941C222.807 99.6834 222.912 98.9468 222.912 97.7843V84.6156C222.912 83.3328 222.772 82.5361 222.491 82.2254C222.101 81.7844 221.519 81.5639 220.748 81.5639H219.981V81.0077H227.407C229.572 81.0077 231.166 81.1681 232.188 81.4888C233.22 81.7994 234.092 82.3807 234.804 83.2326C235.525 84.0744 235.886 85.0816 235.886 86.2542C235.886 87.5069 235.475 88.5943 234.654 89.5163C233.842 90.4383 232.579 91.0897 230.865 91.4705L235.074 97.3183C236.037 98.6612 236.863 99.5531 237.555 99.9941C238.247 100.435 239.149 100.716 240.261 100.836V101.392ZM225.784 90.9143C225.974 90.9143 226.14 90.9193 226.28 90.9293C226.42 90.9293 226.535 90.9293 226.626 90.9293C228.57 90.9293 230.033 90.5084 231.015 89.6666C232.008 88.8248 232.504 87.7524 232.504 86.4496C232.504 85.1768 232.103 84.1446 231.301 83.3528C230.509 82.5511 229.457 82.1502 228.144 82.1502C227.563 82.1502 226.776 82.2454 225.784 82.4358V90.9143Z" fill="white"/>
<path d="M254.678 81.5639V81.0077H261.894V81.5639H261.127C260.326 81.5639 259.709 81.8997 259.278 82.5711C259.068 82.8818 258.963 83.6034 258.963 84.7358V93.0039C258.963 95.0483 258.757 96.6368 258.346 97.7692C257.945 98.8917 257.149 99.8588 255.956 100.671C254.773 101.472 253.16 101.873 251.115 101.873C248.89 101.873 247.201 101.487 246.049 100.716C244.896 99.944 244.08 98.9067 243.598 97.6039C243.278 96.7119 243.117 95.0383 243.117 92.5829V84.6156C243.117 83.3629 242.942 82.5411 242.591 82.1502C242.25 81.7594 241.694 81.5639 240.922 81.5639H240.156V81.0077H248.965V81.5639H248.184C247.342 81.5639 246.74 81.8295 246.38 82.3607C246.129 82.7215 246.004 83.4731 246.004 84.6156V93.4999C246.004 94.2917 246.074 95.1986 246.214 96.2209C246.365 97.2431 246.63 98.0398 247.011 98.6111C247.392 99.1823 247.938 99.6534 248.65 100.024C249.371 100.395 250.253 100.58 251.296 100.58C252.629 100.58 253.821 100.29 254.874 99.7085C255.926 99.1272 256.642 98.3856 257.023 97.4836C257.414 96.5716 257.61 95.0333 257.61 92.8686V84.6156C257.61 83.3428 257.469 82.5461 257.189 82.2254C256.798 81.7844 256.217 81.5639 255.445 81.5639H254.678Z" fill="white"/>
<path d="M276.462 90.9895C277.875 91.2901 278.932 91.7712 279.634 92.4326C280.606 93.3546 281.092 94.4821 281.092 95.815C281.092 96.8272 280.771 97.7993 280.13 98.7313C279.488 99.6534 278.606 100.33 277.484 100.761C276.371 101.182 274.668 101.392 272.373 101.392H262.751V100.836H263.518C264.37 100.836 264.981 100.565 265.352 100.024C265.582 99.6734 265.698 98.9268 265.698 97.7843V84.6156C265.698 83.3528 265.552 82.5561 265.262 82.2254C264.871 81.7844 264.29 81.5639 263.518 81.5639H262.751V81.0077H271.561C273.204 81.0077 274.522 81.128 275.515 81.3685C277.018 81.7293 278.165 82.3707 278.957 83.2927C279.749 84.2047 280.145 85.257 280.145 86.4496C280.145 87.4718 279.834 88.3888 279.213 89.2006C278.591 90.0023 277.674 90.5986 276.462 90.9895ZM268.584 90.1777C268.955 90.2479 269.376 90.303 269.847 90.3431C270.328 90.3731 270.854 90.3882 271.425 90.3882C272.889 90.3882 273.986 90.2328 274.718 89.9221C275.459 89.6014 276.026 89.1154 276.417 88.464C276.807 87.8126 277.003 87.101 277.003 86.3293C277.003 85.1367 276.517 84.1195 275.545 83.2777C274.572 82.4358 273.154 82.0149 271.29 82.0149C270.288 82.0149 269.386 82.1252 268.584 82.3456V90.1777ZM268.584 99.9189C269.747 100.19 270.894 100.325 272.027 100.325C273.841 100.325 275.224 99.9189 276.176 99.1072C277.128 98.2854 277.604 97.2732 277.604 96.0705C277.604 95.2788 277.389 94.5172 276.958 93.7856C276.527 93.054 275.825 92.4777 274.853 92.0568C273.881 91.6359 272.678 91.4254 271.245 91.4254C270.624 91.4254 270.092 91.4354 269.651 91.4555C269.21 91.4755 268.855 91.5106 268.584 91.5607V99.9189Z" fill="white"/>
<path d="M289.21 82.1201V90.1777H293.69C294.853 90.1777 295.629 90.0023 296.02 89.6516C296.541 89.1906 296.832 88.3788 296.892 87.2163H297.448V94.3117H296.892C296.752 93.3196 296.612 92.6832 296.471 92.4026C296.291 92.0518 295.995 91.7762 295.584 91.5758C295.173 91.3753 294.542 91.2751 293.69 91.2751H289.21V97.9947C289.21 98.8967 289.25 99.4479 289.33 99.6483C289.41 99.8388 289.551 99.9941 289.751 100.114C289.952 100.225 290.333 100.28 290.894 100.28H294.352C295.504 100.28 296.341 100.2 296.862 100.039C297.383 99.8788 297.884 99.5632 298.365 99.0921C298.987 98.4708 299.623 97.5337 300.275 96.281H300.876L299.117 101.392H283.407V100.836H284.129C284.61 100.836 285.066 100.721 285.497 100.49C285.817 100.33 286.033 100.089 286.143 99.7686C286.263 99.4479 286.324 98.7915 286.324 97.7993V84.5555C286.324 83.2626 286.193 82.4659 285.933 82.1652C285.572 81.7644 284.971 81.5639 284.129 81.5639H283.407V81.0077H299.117L299.343 85.4725H298.756C298.546 84.4001 298.31 83.6635 298.05 83.2626C297.799 82.8618 297.423 82.5561 296.922 82.3456C296.521 82.1953 295.815 82.1201 294.803 82.1201H289.21ZM295.599 74.3783L291.164 79.5646H290.653L292.232 74.3783H295.599Z" fill="white"/>
<path d="M301.192 81.0077H306.724L319.187 96.296V84.5404C319.187 83.2877 319.047 82.506 318.766 82.1953C318.395 81.7744 317.809 81.5639 317.007 81.5639H316.3V81.0077H323.396V81.5639H322.675C321.813 81.5639 321.201 81.8245 320.841 82.3456C320.62 82.6663 320.51 83.3979 320.51 84.5404V101.723H319.969L306.529 85.3071V97.8594C306.529 99.1122 306.664 99.8939 306.935 100.205C307.315 100.625 307.902 100.836 308.693 100.836H309.415V101.392H302.319V100.836H303.026C303.898 100.836 304.514 100.575 304.875 100.054C305.095 99.7335 305.206 99.0019 305.206 97.8594V83.6836C304.614 82.992 304.163 82.5361 303.853 82.3156C303.552 82.0951 303.106 81.8896 302.515 81.6992C302.224 81.609 301.783 81.5639 301.192 81.5639V81.0077Z" fill="white"/>
<path d="M66.8301 128.119C66.6868 127.789 66.4801 127.49 66.2217 127.238C65.9631 126.986 65.6582 126.786 65.3236 126.648C64.9766 126.505 64.6045 126.431 64.2288 126.432C63.7017 126.432 63.1874 126.576 62.7405 126.847C62.6336 126.912 62.532 126.983 62.4358 127.061C62.3395 126.983 62.238 126.912 62.1311 126.847C61.6841 126.576 61.1699 126.432 60.6428 126.432C60.2632 126.432 59.8954 126.505 59.5479 126.648C59.2122 126.786 58.9097 126.985 58.6498 127.238C58.3911 127.489 58.1844 127.788 58.0415 128.119C57.8929 128.462 57.817 128.827 57.817 129.202C57.817 129.556 57.8897 129.925 58.034 130.3C58.1548 130.614 58.328 130.939 58.5493 131.268C58.9 131.788 59.3822 132.33 59.981 132.88C60.9731 133.791 61.9557 134.42 61.9974 134.446L62.2508 134.607C62.3631 134.679 62.5074 134.679 62.6197 134.607L62.8731 134.446C62.9148 134.419 63.8963 133.791 64.8895 132.88C65.4883 132.33 65.9705 131.788 66.3211 131.268C66.5425 130.939 66.7167 130.614 66.8365 130.3C66.9808 129.925 67.0535 129.556 67.0535 129.202C67.0546 128.827 66.9787 128.462 66.8301 128.119Z" fill="white"/>
<path d="M79.0016 130.642C79.0016 129.479 79.1769 128.48 79.5277 127.643C79.8785 126.801 80.3445 126.175 80.9258 125.764C81.3768 125.438 81.8429 125.275 82.324 125.275C83.1057 125.275 83.8073 125.673 84.4286 126.47C85.2054 127.457 85.5937 128.795 85.5937 130.484C85.5937 131.667 85.4234 132.671 85.0826 133.498C84.7418 134.325 84.3059 134.926 83.7747 135.302C83.2485 135.673 82.7399 135.858 82.2488 135.858C81.2766 135.858 80.4673 135.284 79.8209 134.137C79.2747 133.17 79.0016 132.005 79.0016 130.642ZM80.4748 130.83C80.4748 132.233 80.6477 133.378 80.9935 134.265C81.2791 135.011 81.7051 135.385 82.2713 135.385C82.5419 135.385 82.8226 135.264 83.1132 135.024C83.4039 134.778 83.6243 134.37 83.7747 133.799C84.0052 132.937 84.1205 131.722 84.1205 130.153C84.1205 128.991 84.0002 128.021 83.7597 127.244C83.5792 126.668 83.3462 126.26 83.0606 126.019C82.8551 125.854 82.6071 125.771 82.3164 125.771C81.9757 125.771 81.6725 125.924 81.4069 126.23C81.0461 126.646 80.8006 127.3 80.6703 128.191C80.54 129.083 80.4748 129.963 80.4748 130.83Z" fill="white"/>
<path d="M86.9242 127.425C87.2148 126.738 87.5807 126.21 88.0216 125.839C88.4676 125.463 89.0214 125.275 89.6828 125.275C90.4997 125.275 91.1261 125.541 91.562 126.072C91.8928 126.468 92.0581 126.891 92.0581 127.342C92.0581 128.084 91.5921 128.85 90.66 129.642C91.2864 129.888 91.76 130.238 92.0807 130.694C92.4014 131.15 92.5618 131.687 92.5618 132.303C92.5618 133.185 92.2811 133.949 91.7199 134.595C90.9883 135.437 89.9284 135.858 88.5403 135.858C87.8538 135.858 87.3852 135.773 87.1347 135.603C86.8891 135.432 86.7663 135.249 86.7663 135.054C86.7663 134.909 86.824 134.781 86.9392 134.671C87.0595 134.56 87.2023 134.505 87.3677 134.505C87.493 134.505 87.6208 134.525 87.751 134.565C87.8362 134.59 88.0292 134.683 88.3298 134.843C88.6305 134.999 88.8385 135.091 88.9537 135.122C89.1391 135.177 89.3371 135.204 89.5475 135.204C90.0587 135.204 90.5022 135.006 90.878 134.61C91.2589 134.215 91.4493 133.746 91.4493 133.205C91.4493 132.809 91.3616 132.423 91.1862 132.047C91.0559 131.767 90.9131 131.554 90.7577 131.408C90.5423 131.208 90.2466 131.028 89.8708 130.867C89.4949 130.702 89.1116 130.619 88.7207 130.619H88.4802V130.394C88.876 130.344 89.2719 130.201 89.6678 129.965C90.0687 129.73 90.3594 129.447 90.5398 129.116C90.7202 128.785 90.8104 128.422 90.8104 128.026C90.8104 127.51 90.6475 127.094 90.3218 126.778C90.0011 126.458 89.6002 126.297 89.1191 126.297C88.3424 126.297 87.6934 126.713 87.1723 127.545L86.9242 127.425Z" fill="white"/>
<path d="M95.7639 134.22C95.9994 134.22 96.1974 134.302 96.3577 134.468C96.5181 134.628 96.5983 134.823 96.5983 135.054C96.5983 135.284 96.5156 135.482 96.3502 135.648C96.1898 135.808 95.9944 135.888 95.7639 135.888C95.5334 135.888 95.3354 135.808 95.1701 135.648C95.0097 135.482 94.9295 135.284 94.9295 135.054C94.9295 134.818 95.0097 134.62 95.1701 134.46C95.3354 134.3 95.5334 134.22 95.7639 134.22Z" fill="white"/>
<path d="M108.595 125.253V128.778H108.317C108.227 128.101 108.064 127.563 107.828 127.162C107.598 126.761 107.267 126.443 106.836 126.207C106.405 125.972 105.959 125.854 105.498 125.854C104.977 125.854 104.546 126.014 104.205 126.335C103.864 126.651 103.694 127.011 103.694 127.417C103.694 127.728 103.802 128.011 104.017 128.267C104.328 128.642 105.067 129.144 106.235 129.77C107.187 130.281 107.836 130.674 108.182 130.95C108.532 131.221 108.8 131.541 108.986 131.912C109.176 132.283 109.271 132.671 109.271 133.077C109.271 133.849 108.971 134.515 108.369 135.076C107.773 135.633 107.004 135.911 106.062 135.911C105.766 135.911 105.488 135.888 105.227 135.843C105.072 135.818 104.749 135.728 104.258 135.573C103.772 135.412 103.464 135.332 103.333 135.332C103.208 135.332 103.108 135.37 103.033 135.445C102.962 135.52 102.91 135.675 102.875 135.911H102.597V132.416H102.875C103.005 133.147 103.18 133.696 103.401 134.062C103.621 134.423 103.957 134.723 104.408 134.964C104.864 135.204 105.363 135.324 105.904 135.324C106.53 135.324 107.024 135.159 107.385 134.828C107.751 134.498 107.934 134.107 107.934 133.656C107.934 133.405 107.863 133.152 107.723 132.897C107.588 132.641 107.375 132.403 107.084 132.183C106.889 132.032 106.355 131.714 105.483 131.228C104.611 130.737 103.99 130.346 103.619 130.056C103.253 129.765 102.975 129.444 102.785 129.093C102.594 128.743 102.499 128.357 102.499 127.936C102.499 127.204 102.78 126.575 103.341 126.049C103.902 125.518 104.616 125.253 105.483 125.253C106.024 125.253 106.598 125.385 107.204 125.651C107.485 125.776 107.683 125.839 107.798 125.839C107.928 125.839 108.034 125.801 108.114 125.726C108.199 125.646 108.267 125.488 108.317 125.253H108.595Z" fill="white"/>
<path d="M113.323 126.042V130.071H115.563C116.144 130.071 116.533 129.983 116.728 129.807C116.989 129.577 117.134 129.171 117.164 128.59H117.442V132.138H117.164C117.094 131.641 117.024 131.323 116.954 131.183C116.863 131.008 116.716 130.87 116.51 130.77C116.305 130.669 115.989 130.619 115.563 130.619H113.323V133.979C113.323 134.43 113.343 134.706 113.383 134.806C113.423 134.901 113.493 134.979 113.594 135.039C113.694 135.094 113.884 135.122 114.165 135.122H115.894C116.47 135.122 116.888 135.081 117.149 135.001C117.41 134.921 117.66 134.763 117.901 134.528C118.211 134.217 118.53 133.749 118.855 133.122H119.156L118.277 135.678H110.422V135.4H110.782C111.023 135.4 111.251 135.342 111.466 135.227C111.627 135.147 111.734 135.026 111.79 134.866C111.85 134.706 111.88 134.377 111.88 133.881V127.259C111.88 126.613 111.815 126.215 111.684 126.064C111.504 125.864 111.203 125.764 110.782 125.764H110.422V125.486H118.277L118.389 127.718H118.096C117.991 127.182 117.873 126.813 117.743 126.613C117.618 126.413 117.43 126.26 117.179 126.155C116.979 126.079 116.625 126.042 116.119 126.042H113.323Z" fill="white"/>
<path d="M122.674 130.905V133.874C122.674 134.515 122.744 134.914 122.884 135.069C123.075 135.289 123.363 135.4 123.749 135.4H124.14V135.678H119.772V135.4H120.156C120.587 135.4 120.895 135.259 121.08 134.979C121.181 134.823 121.231 134.455 121.231 133.874V127.289C121.231 126.648 121.163 126.25 121.028 126.094C120.832 125.874 120.542 125.764 120.156 125.764H119.772V125.486H123.508C124.42 125.486 125.139 125.581 125.666 125.771C126.192 125.957 126.635 126.272 126.996 126.718C127.357 127.164 127.537 127.693 127.537 128.304C127.537 129.136 127.262 129.812 126.71 130.334C126.164 130.855 125.39 131.115 124.388 131.115C124.142 131.115 123.877 131.098 123.591 131.063C123.305 131.028 123 130.975 122.674 130.905ZM122.674 130.476C122.939 130.527 123.175 130.564 123.38 130.589C123.586 130.614 123.761 130.627 123.907 130.627C124.428 130.627 124.876 130.426 125.252 130.025C125.633 129.62 125.823 129.096 125.823 128.455C125.823 128.014 125.733 127.605 125.553 127.229C125.372 126.849 125.117 126.565 124.786 126.38C124.455 126.19 124.079 126.094 123.659 126.094C123.403 126.094 123.075 126.142 122.674 126.237V130.476Z" fill="white"/>
<path d="M138.421 133.716L137.707 135.678H131.694V135.4C133.463 133.786 134.708 132.468 135.43 131.446C136.151 130.424 136.512 129.489 136.512 128.642C136.512 127.996 136.314 127.465 135.918 127.049C135.522 126.633 135.049 126.425 134.498 126.425C133.997 126.425 133.546 126.573 133.145 126.869C132.749 127.159 132.456 127.588 132.265 128.154H131.987C132.112 127.227 132.433 126.515 132.949 126.019C133.47 125.523 134.119 125.275 134.896 125.275C135.723 125.275 136.412 125.541 136.963 126.072C137.519 126.603 137.798 127.229 137.798 127.951C137.798 128.467 137.677 128.983 137.437 129.499C137.066 130.311 136.465 131.17 135.633 132.077C134.385 133.44 133.606 134.262 133.295 134.543H135.956C136.497 134.543 136.875 134.523 137.091 134.483C137.311 134.443 137.509 134.362 137.685 134.242C137.86 134.117 138.013 133.941 138.143 133.716H138.421Z" fill="white"/>
<path d="M139.617 130.642C139.617 129.479 139.792 128.48 140.143 127.643C140.494 126.801 140.96 126.175 141.541 125.764C141.992 125.438 142.458 125.275 142.939 125.275C143.721 125.275 144.422 125.673 145.044 126.47C145.82 127.457 146.209 128.795 146.209 130.484C146.209 131.667 146.038 132.671 145.698 133.498C145.357 134.325 144.921 134.926 144.39 135.302C143.864 135.673 143.355 135.858 142.864 135.858C141.892 135.858 141.082 135.284 140.436 134.137C139.89 133.17 139.617 132.005 139.617 130.642ZM141.09 130.83C141.09 132.233 141.263 133.378 141.609 134.265C141.894 135.011 142.32 135.385 142.886 135.385C143.157 135.385 143.438 135.264 143.728 135.024C144.019 134.778 144.239 134.37 144.39 133.799C144.62 132.937 144.735 131.722 144.735 130.153C144.735 128.991 144.615 128.021 144.375 127.244C144.194 126.668 143.961 126.26 143.676 126.019C143.47 125.854 143.222 125.771 142.931 125.771C142.591 125.771 142.288 125.924 142.022 126.23C141.661 126.646 141.416 127.3 141.285 128.191C141.155 129.083 141.09 129.963 141.09 130.83Z" fill="white"/>
<path d="M153.816 133.716L153.102 135.678H147.088V135.4C148.857 133.786 150.102 132.468 150.824 131.446C151.546 130.424 151.906 129.489 151.906 128.642C151.906 127.996 151.709 127.465 151.313 127.049C150.917 126.633 150.443 126.425 149.892 126.425C149.391 126.425 148.94 126.573 148.539 126.869C148.143 127.159 147.85 127.588 147.66 128.154H147.381C147.507 127.227 147.827 126.515 148.344 126.019C148.865 125.523 149.514 125.275 150.29 125.275C151.117 125.275 151.806 125.541 152.357 126.072C152.914 126.603 153.192 127.229 153.192 127.951C153.192 128.467 153.072 128.983 152.831 129.499C152.46 130.311 151.859 131.17 151.027 132.077C149.779 133.44 149 134.262 148.689 134.543H151.35C151.891 134.543 152.27 134.523 152.485 134.483C152.706 134.443 152.904 134.362 153.079 134.242C153.254 134.117 153.407 133.941 153.538 133.716H153.816Z" fill="white"/>
<path d="M161.513 133.716L160.799 135.678H154.785V135.4C156.554 133.786 157.8 132.468 158.521 131.446C159.243 130.424 159.604 129.489 159.604 128.642C159.604 127.996 159.406 127.465 159.01 127.049C158.614 126.633 158.14 126.425 157.589 126.425C157.088 126.425 156.637 126.573 156.236 126.869C155.84 127.159 155.547 127.588 155.357 128.154H155.079C155.204 127.227 155.525 126.515 156.041 126.019C156.562 125.523 157.211 125.275 157.988 125.275C158.814 125.275 159.503 125.541 160.055 126.072C160.611 126.603 160.889 127.229 160.889 127.951C160.889 128.467 160.769 128.983 160.528 129.499C160.157 130.311 159.556 131.17 158.724 132.077C157.476 133.44 156.697 134.262 156.386 134.543H159.047C159.589 134.543 159.967 134.523 160.182 134.483C160.403 134.443 160.601 134.362 160.776 134.242C160.952 134.117 161.104 133.941 161.235 133.716H161.513Z" fill="white"/>
<path d="M167.834 124.989V139H167.211V124.989H167.834Z" fill="white"/>
<path d="M172.728 125.486H175.494L181.725 133.13V127.252C181.725 126.626 181.655 126.235 181.515 126.079C181.33 125.869 181.036 125.764 180.635 125.764H180.282V125.486H183.83V125.764H183.469C183.038 125.764 182.733 125.894 182.552 126.155C182.442 126.315 182.387 126.681 182.387 127.252V135.843H182.116L175.396 127.635V133.911C175.396 134.538 175.464 134.929 175.599 135.084C175.79 135.294 176.083 135.4 176.479 135.4H176.84V135.678H173.292V135.4H173.645C174.081 135.4 174.389 135.269 174.569 135.009C174.68 134.848 174.735 134.483 174.735 133.911V126.823C174.439 126.478 174.214 126.25 174.058 126.139C173.908 126.029 173.685 125.927 173.389 125.831C173.244 125.786 173.024 125.764 172.728 125.764V125.486Z" fill="white"/>
<path d="M191.399 125.764V125.486H195.007V125.764H194.624C194.223 125.764 193.915 125.932 193.7 126.267C193.594 126.423 193.542 126.783 193.542 127.35V131.484C193.542 132.506 193.439 133.3 193.234 133.866C193.033 134.428 192.635 134.911 192.038 135.317C191.447 135.718 190.64 135.918 189.618 135.918C188.506 135.918 187.661 135.725 187.085 135.34C186.509 134.954 186.1 134.435 185.86 133.784C185.699 133.338 185.619 132.501 185.619 131.273V127.289C185.619 126.663 185.531 126.252 185.356 126.057C185.186 125.861 184.907 125.764 184.522 125.764H184.138V125.486H188.543V125.764H188.152C187.731 125.764 187.431 125.896 187.25 126.162C187.125 126.342 187.062 126.718 187.062 127.289V131.732C187.062 132.128 187.097 132.581 187.168 133.092C187.243 133.603 187.375 134.002 187.566 134.287C187.756 134.573 188.029 134.808 188.385 134.994C188.746 135.179 189.187 135.272 189.708 135.272C190.375 135.272 190.971 135.127 191.497 134.836C192.023 134.545 192.382 134.174 192.572 133.723C192.767 133.268 192.865 132.498 192.865 131.416V127.289C192.865 126.653 192.795 126.255 192.655 126.094C192.459 125.874 192.169 125.764 191.783 125.764H191.399Z" fill="white"/>
<path d="M198.398 126.042V130.071H200.638C201.219 130.071 201.607 129.983 201.803 129.807C202.063 129.577 202.209 129.171 202.239 128.59H202.517V132.138H202.239C202.168 131.641 202.098 131.323 202.028 131.183C201.938 131.008 201.79 130.87 201.585 130.77C201.379 130.669 201.063 130.619 200.638 130.619H198.398V133.979C198.398 134.43 198.418 134.706 198.458 134.806C198.498 134.901 198.568 134.979 198.668 135.039C198.768 135.094 198.959 135.122 199.239 135.122H200.968C201.545 135.122 201.963 135.081 202.224 135.001C202.484 134.921 202.735 134.763 202.975 134.528C203.286 134.217 203.604 133.749 203.93 133.122H204.231L203.351 135.678H195.496V135.4H195.857C196.097 135.4 196.325 135.342 196.541 135.227C196.701 135.147 196.809 135.026 196.864 134.866C196.924 134.706 196.954 134.377 196.954 133.881V127.259C196.954 126.613 196.889 126.215 196.759 126.064C196.578 125.864 196.278 125.764 195.857 125.764H195.496V125.486H203.351L203.464 127.718H203.171C203.065 127.182 202.948 126.813 202.817 126.613C202.692 126.413 202.504 126.26 202.254 126.155C202.053 126.079 201.7 126.042 201.194 126.042H198.398Z" fill="white"/>
<path d="M211.65 125.253V128.778H211.371C211.281 128.101 211.118 127.563 210.883 127.162C210.652 126.761 210.322 126.443 209.891 126.207C209.46 125.972 209.014 125.854 208.553 125.854C208.032 125.854 207.601 126.014 207.26 126.335C206.919 126.651 206.749 127.011 206.749 127.417C206.749 127.728 206.856 128.011 207.072 128.267C207.383 128.642 208.122 129.144 209.289 129.77C210.241 130.281 210.89 130.674 211.236 130.95C211.587 131.221 211.855 131.541 212.04 131.912C212.231 132.283 212.326 132.671 212.326 133.077C212.326 133.849 212.025 134.515 211.424 135.076C210.828 135.633 210.059 135.911 209.116 135.911C208.821 135.911 208.543 135.888 208.282 135.843C208.127 135.818 207.803 135.728 207.312 135.573C206.826 135.412 206.518 135.332 206.388 135.332C206.263 135.332 206.162 135.37 206.087 135.445C206.017 135.52 205.964 135.675 205.929 135.911H205.651V132.416H205.929C206.06 133.147 206.235 133.696 206.455 134.062C206.676 134.423 207.012 134.723 207.463 134.964C207.919 135.204 208.417 135.324 208.959 135.324C209.585 135.324 210.079 135.159 210.439 134.828C210.805 134.498 210.988 134.107 210.988 133.656C210.988 133.405 210.918 133.152 210.778 132.897C210.642 132.641 210.429 132.403 210.139 132.183C209.943 132.032 209.41 131.714 208.538 131.228C207.666 130.737 207.044 130.346 206.673 130.056C206.308 129.765 206.03 129.444 205.839 129.093C205.649 128.743 205.553 128.357 205.553 127.936C205.553 127.204 205.834 126.575 206.395 126.049C206.957 125.518 207.671 125.253 208.538 125.253C209.079 125.253 209.653 125.385 210.259 125.651C210.54 125.776 210.738 125.839 210.853 125.839C210.983 125.839 211.088 125.801 211.168 125.726C211.254 125.646 211.321 125.488 211.371 125.253H211.65Z" fill="white"/>
<path d="M222.068 125.486L222.181 127.876H221.895C221.84 127.455 221.765 127.154 221.669 126.974C221.514 126.683 221.306 126.47 221.045 126.335C220.79 126.195 220.452 126.124 220.031 126.124H218.595V133.911C218.595 134.538 218.663 134.929 218.798 135.084C218.988 135.294 219.282 135.4 219.677 135.4H220.031V135.678H215.709V135.4H216.069C216.5 135.4 216.806 135.269 216.986 135.009C217.097 134.848 217.152 134.483 217.152 133.911V126.124H215.927C215.451 126.124 215.112 126.16 214.912 126.23C214.651 126.325 214.428 126.508 214.243 126.778C214.057 127.049 213.947 127.415 213.912 127.876H213.626L213.747 125.486H222.068Z" fill="white"/>
<path d="M232.975 135.678H230.254L226.803 130.912C226.548 130.922 226.34 130.927 226.179 130.927C226.114 130.927 226.044 130.927 225.969 130.927C225.894 130.922 225.816 130.917 225.736 130.912V133.874C225.736 134.515 225.806 134.914 225.946 135.069C226.137 135.289 226.422 135.4 226.803 135.4H227.202V135.678H222.834V135.4H223.218C223.649 135.4 223.957 135.259 224.142 134.979C224.248 134.823 224.3 134.455 224.3 133.874V127.289C224.3 126.648 224.23 126.25 224.09 126.094C223.894 125.874 223.604 125.764 223.218 125.764H222.834V125.486H226.548C227.63 125.486 228.427 125.566 228.938 125.726C229.454 125.881 229.89 126.172 230.246 126.598C230.607 127.019 230.787 127.522 230.787 128.109C230.787 128.735 230.582 129.279 230.171 129.74C229.765 130.201 229.134 130.527 228.277 130.717L230.381 133.641C230.862 134.312 231.276 134.758 231.622 134.979C231.967 135.199 232.418 135.34 232.975 135.4V135.678ZM225.736 130.439C225.831 130.439 225.914 130.441 225.984 130.446C226.054 130.446 226.112 130.446 226.157 130.446C227.129 130.446 227.861 130.236 228.352 129.815C228.848 129.394 229.096 128.858 229.096 128.206C229.096 127.57 228.895 127.054 228.495 126.658C228.099 126.257 227.573 126.057 226.916 126.057C226.625 126.057 226.232 126.104 225.736 126.2V130.439Z" fill="white"/>
<path d="M239.882 132.265H235.936L235.245 133.874C235.074 134.27 234.989 134.565 234.989 134.761C234.989 134.916 235.062 135.054 235.207 135.174C235.357 135.289 235.678 135.365 236.169 135.4V135.678H232.96V135.4C233.385 135.324 233.661 135.227 233.786 135.107C234.042 134.866 234.325 134.377 234.636 133.641L238.221 125.253H238.484L242.032 133.731C242.318 134.413 242.576 134.856 242.806 135.061C243.042 135.262 243.368 135.375 243.784 135.4V135.678H239.762V135.4C240.168 135.38 240.441 135.312 240.582 135.197C240.727 135.081 240.799 134.941 240.799 134.776C240.799 134.555 240.699 134.207 240.499 133.731L239.882 132.265ZM239.672 131.709L237.943 127.59L236.169 131.709H239.672Z" fill="white"/>
<path d="M254.067 130.476C254.773 130.627 255.302 130.867 255.653 131.198C256.139 131.659 256.382 132.223 256.382 132.889C256.382 133.395 256.221 133.881 255.901 134.347C255.58 134.808 255.139 135.147 254.578 135.362C254.021 135.573 253.17 135.678 252.022 135.678H247.211V135.4H247.595C248.021 135.4 248.326 135.264 248.512 134.994C248.627 134.818 248.685 134.445 248.685 133.874V127.289C248.685 126.658 248.612 126.26 248.467 126.094C248.271 125.874 247.98 125.764 247.595 125.764H247.211V125.486H251.616C252.438 125.486 253.097 125.546 253.593 125.666C254.345 125.846 254.918 126.167 255.314 126.628C255.71 127.084 255.908 127.61 255.908 128.206C255.908 128.718 255.753 129.176 255.442 129.582C255.131 129.983 254.673 130.281 254.067 130.476ZM250.128 130.071C250.313 130.106 250.524 130.133 250.759 130.153C251 130.168 251.263 130.176 251.548 130.176C252.28 130.176 252.829 130.098 253.195 129.943C253.565 129.782 253.849 129.539 254.044 129.214C254.239 128.888 254.337 128.532 254.337 128.146C254.337 127.55 254.094 127.041 253.608 126.621C253.122 126.2 252.413 125.989 251.481 125.989C250.98 125.989 250.529 126.044 250.128 126.155V130.071ZM250.128 134.941C250.709 135.076 251.283 135.144 251.849 135.144C252.756 135.144 253.448 134.941 253.924 134.535C254.4 134.124 254.638 133.618 254.638 133.017C254.638 132.621 254.53 132.24 254.315 131.874C254.099 131.509 253.748 131.221 253.262 131.01C252.776 130.8 252.175 130.694 251.458 130.694C251.148 130.694 250.882 130.699 250.661 130.709C250.441 130.719 250.263 130.737 250.128 130.762V134.941Z" fill="white"/>
<path d="M262.854 125.253C264.177 125.253 265.322 125.756 266.289 126.763C267.261 127.766 267.747 129.018 267.747 130.522C267.747 132.07 267.258 133.355 266.281 134.377C265.304 135.4 264.121 135.911 262.733 135.911C261.33 135.911 260.15 135.412 259.193 134.415C258.241 133.418 257.765 132.128 257.765 130.544C257.765 128.926 258.316 127.605 259.418 126.583C260.376 125.696 261.521 125.253 262.854 125.253ZM262.711 125.801C261.799 125.801 261.067 126.139 260.516 126.816C259.829 127.658 259.486 128.89 259.486 130.514C259.486 132.178 259.842 133.458 260.554 134.355C261.1 135.036 261.821 135.377 262.718 135.377C263.675 135.377 264.465 135.004 265.086 134.257C265.713 133.511 266.026 132.333 266.026 130.724C266.026 128.981 265.682 127.68 264.996 126.823C264.445 126.142 263.683 125.801 262.711 125.801Z" fill="white"/>
<path d="M268.611 135.678V135.4H268.995C269.426 135.4 269.731 135.262 269.912 134.986C270.022 134.821 270.077 134.45 270.077 133.874V127.289C270.077 126.653 270.007 126.255 269.867 126.094C269.671 125.874 269.381 125.764 268.995 125.764H268.611V125.486H272.761C274.284 125.486 275.442 125.658 276.233 126.004C277.03 126.35 277.669 126.926 278.15 127.733C278.636 128.54 278.879 129.472 278.879 130.529C278.879 131.947 278.448 133.132 277.586 134.084C276.619 135.147 275.146 135.678 273.167 135.678H268.611ZM271.52 134.941C272.157 135.081 272.691 135.152 273.122 135.152C274.284 135.152 275.249 134.743 276.015 133.926C276.782 133.11 277.166 132.002 277.166 130.604C277.166 129.196 276.782 128.086 276.015 127.274C275.249 126.463 274.264 126.057 273.061 126.057C272.61 126.057 272.097 126.129 271.52 126.275V134.941Z" fill="white"/>
<path d="M286.516 132.265H282.57L281.879 133.874C281.708 134.27 281.623 134.565 281.623 134.761C281.623 134.916 281.696 135.054 281.841 135.174C281.991 135.289 282.312 135.365 282.803 135.4V135.678H279.593V135.4C280.019 135.324 280.295 135.227 280.42 135.107C280.676 134.866 280.959 134.377 281.27 133.641L284.855 125.253H285.118L288.666 133.731C288.952 134.413 289.21 134.856 289.44 135.061C289.676 135.262 290.002 135.375 290.418 135.4V135.678H286.396V135.4C286.802 135.38 287.075 135.312 287.215 135.197C287.361 135.081 287.433 134.941 287.433 134.776C287.433 134.555 287.333 134.207 287.133 133.731L286.516 132.265ZM286.306 131.709L284.577 127.59L282.803 131.709H286.306Z" fill="white"/>
<path d="M311.086 128.119C310.943 127.789 310.736 127.49 310.478 127.238C310.219 126.986 309.914 126.786 309.58 126.648C309.233 126.505 308.861 126.431 308.485 126.432C307.958 126.432 307.444 126.576 306.997 126.847C306.89 126.912 306.788 126.983 306.692 127.061C306.596 126.983 306.494 126.912 306.387 126.847C305.94 126.576 305.426 126.432 304.899 126.432C304.519 126.432 304.152 126.505 303.804 126.648C303.468 126.786 303.166 126.985 302.906 127.238C302.647 127.489 302.441 127.788 302.298 128.119C302.149 128.462 302.073 128.827 302.073 129.202C302.073 129.556 302.146 129.925 302.29 130.3C302.411 130.614 302.584 130.939 302.805 131.268C303.156 131.788 303.638 132.33 304.237 132.88C305.229 133.791 306.212 134.42 306.254 134.446L306.507 134.607C306.619 134.679 306.764 134.679 306.876 134.607L307.129 134.446C307.171 134.419 308.152 133.791 309.146 132.88C309.744 132.33 310.227 131.788 310.577 131.268C310.799 130.939 310.973 130.614 311.093 130.3C311.237 129.925 311.31 129.556 311.31 129.202C311.311 128.827 311.235 128.462 311.086 128.119Z" fill="white"/>
<path d="M367.14 52.1328H1.78172V129.716H48.9909V130.537H0.960693V51.3118H367.961V130.537H320.136V129.716H367.14V52.1328Z" fill="white"/>
</svg>
