<svg width="263" height="300" viewBox="0 0 263 300" fill="none" xmlns="http://www.w3.org/2000/svg">
<path d="M180.971 1.26899C180.969 1.26899 180.966 1.26699 180.963 1.26699C180.951 1.26299 180.94 1.25899 180.928 1.25499C180.871 1.23699 180.815 1.22599 180.758 1.20999C180.754 1.20999 180.75 1.20799 180.746 1.20799C180.668 1.18599 180.59 1.16099 180.51 1.14299C180.481 1.13499 180.451 1.12899 180.422 1.12199C180.35 1.10599 180.277 1.09699 180.205 1.08499C180.127 1.07099 180.051 1.05599 179.975 1.04599C179.948 1.04199 179.92 1.03999 179.893 1.03599C179.813 1.02599 179.733 1.02199 179.655 1.01699C179.583 1.01299 179.512 1.00499 179.442 1.00299C179.415 1.00099 179.385 1.00099 179.358 1.00099C179.272 1.00099 179.189 1.00299 179.105 1.00699C179.042 1.00899 178.977 1.00699 178.913 1.01099C178.882 1.01299 178.85 1.01699 178.819 1.01899C178.733 1.02699 178.649 1.03899 178.565 1.04999C178.506 1.05799 178.445 1.06199 178.385 1.07199C178.352 1.07799 178.319 1.08399 178.285 1.09099C178.201 1.10499 178.121 1.12599 178.039 1.14399C177.979 1.15799 177.92 1.16899 177.861 1.18499C177.828 1.19499 177.795 1.20199 177.761 1.21199C177.683 1.23499 177.607 1.26299 177.529 1.28799C177.468 1.30999 177.404 1.32699 177.343 1.35099C177.312 1.36299 177.283 1.37299 177.251 1.38599C177.18 1.41299 177.11 1.44699 177.04 1.47799C176.972 1.50899 176.903 1.53899 176.837 1.57199C176.816 1.58199 176.792 1.58999 176.771 1.60099C176.765 1.60299 176.761 1.60699 176.757 1.60899C176.694 1.64199 176.634 1.67899 176.572 1.71499C176.503 1.75399 176.432 1.79299 176.364 1.83599C176.352 1.84199 176.339 1.84999 176.327 1.85699C176.311 1.86699 176.296 1.87499 176.28 1.88399C176.227 1.91699 176.18 1.95599 176.129 1.99099C176.062 2.03799 175.993 2.08499 175.929 2.13599C175.9 2.15699 175.87 2.17699 175.843 2.19899C175.794 2.23599 175.751 2.27899 175.705 2.31799C175.644 2.37099 175.581 2.42299 175.522 2.47999C175.495 2.50299 175.465 2.52699 175.438 2.55399C175.395 2.59499 175.356 2.64199 175.313 2.68499C175.258 2.74399 175.202 2.79999 175.149 2.86099C175.124 2.88999 175.096 2.91799 175.071 2.94699C175.032 2.99199 174.999 3.04099 174.962 3.08799C174.912 3.15099 174.862 3.21499 174.815 3.28099C174.792 3.31199 174.767 3.34399 174.744 3.37699C174.711 3.42399 174.683 3.47699 174.65 3.52499C174.606 3.59299 174.562 3.66399 174.519 3.73599C174.499 3.76899 174.478 3.80099 174.46 3.83399C174.429 3.88899 174.405 3.94499 174.377 4.00199C174.339 4.07399 174.302 4.14799 174.267 4.22499C174.253 4.25399 174.238 4.28199 174.225 4.31099C174.208 4.35199 174.195 4.39299 174.179 4.43399C174.168 4.45899 174.159 4.48699 174.15 4.51199C174.129 4.56499 174.105 4.61399 174.086 4.66599L152.647 65.273L148.114 33.955C149.139 33.656 150.07 33.07 150.775 32.238C151.821 31.006 152.27 29.377 152.006 27.783L148.338 5.60299C147.9 2.94699 145.604 0.999986 142.913 0.999986H119.952C117.261 0.999986 114.964 2.94699 114.524 5.60299L110.856 27.783C110.592 29.377 111.044 31.006 112.088 32.238C112.793 33.07 113.725 33.656 114.75 33.955L110.127 65.935L89.321 4.72999C89.3 4.67099 89.274 4.61899 89.253 4.56199C89.246 4.53999 89.239 4.52099 89.232 4.50199C89.207 4.44099 89.188 4.37899 89.162 4.31799C89.154 4.29799 89.142 4.27899 89.134 4.25699C89.1 4.18099 89.061 4.10899 89.024 4.03399C89.022 4.02999 89.02 4.02399 89.018 4.01999C88.976 3.93599 88.936 3.85399 88.889 3.77399C88.848 3.69999 88.802 3.63099 88.757 3.55899C88.755 3.55699 88.753 3.55299 88.751 3.55099C88.715 3.49399 88.684 3.43399 88.646 3.37899C88.631 3.35799 88.614 3.33799 88.598 3.31599C88.549 3.24599 88.494 3.17899 88.442 3.11099C88.401 3.05799 88.362 3.00199 88.318 2.94899C88.301 2.93099 88.284 2.91399 88.268 2.89399C88.211 2.83099 88.153 2.77099 88.094 2.70799C88.03 2.64199 87.967 2.57299 87.899 2.50899C87.836 2.44999 87.77 2.39399 87.706 2.33699C87.636 2.27599 87.565 2.21599 87.492 2.15899C87.42 2.10199 87.345 2.05199 87.27 1.99899C87.269 1.99899 87.268 1.99899 87.268 1.99899C87.217 1.96399 87.17 1.92499 87.118 1.88999C87.097 1.87599 87.075 1.86499 87.054 1.85099C86.978 1.80399 86.901 1.76099 86.824 1.71799C86.763 1.68299 86.706 1.64799 86.644 1.61399C86.634 1.60999 86.624 1.60399 86.615 1.59799C86.603 1.59199 86.592 1.58799 86.581 1.58199C86.508 1.54499 86.432 1.51399 86.355 1.47999C86.287 1.44899 86.22 1.41499 86.15 1.38799C86.126 1.37799 86.103 1.36899 86.078 1.35899C86.01 1.33199 85.937 1.31199 85.867 1.28899C85.792 1.26399 85.719 1.23599 85.642 1.21499C85.615 1.20699 85.589 1.19699 85.562 1.18999C85.501 1.17399 85.441 1.16499 85.38 1.14899C85.372 1.14899 85.365 1.14699 85.359 1.14499C85.279 1.12499 85.199 1.10599 85.119 1.08999C85.023 1.07199 84.93 1.06099 84.836 1.04899C84.752 1.03699 84.668 1.02599 84.584 1.01799C84.576 1.01799 84.57 1.01599 84.563 1.01599C84.479 1.00999 84.395 1.00799 84.311 1.00599C84.309 1.00599 84.307 1.00399 84.305 1.00399C84.219 1.00199 84.133 0.997986 84.047 0.997986C84.045 0.997986 84.044 0.997986 84.043 0.997986C83.953 0.999986 83.865 1.00599 83.777 1.01199C83.771 1.01399 83.766 1.01399 83.761 1.01399C83.675 1.01999 83.591 1.02399 83.505 1.03299C83.485 1.03499 83.466 1.03499 83.446 1.03699C83.37 1.04699 83.292 1.06399 83.216 1.07599C83.136 1.08999 83.054 1.10099 82.974 1.11899C82.953 1.12299 82.933 1.12699 82.911 1.13099C82.837 1.14699 82.765 1.17199 82.692 1.19099C82.68 1.19299 82.671 1.19699 82.661 1.19899C82.598 1.21699 82.538 1.22599 82.475 1.24599C82.457 1.25199 82.438 1.25799 82.42 1.26399C82.418 1.26599 82.418 1.26599 82.416 1.26599C58.68 8.68599 38.405 21.246 23.783 37.59C8.55697 54.61 0.508972 74.619 0.508972 95.457V247.123C0.508972 250.162 2.97097 252.623 6.00897 252.623H39.479L35.175 293.781C35.013 295.332 35.516 296.877 36.559 298.035C37.602 299.193 39.086 299.853 40.645 299.853H111.862C111.873 299.853 111.883 299.855 111.893 299.855C112.067 299.855 112.239 299.843 112.411 299.828C112.452 299.824 112.491 299.818 112.532 299.814C112.659 299.798 112.784 299.779 112.907 299.755C112.957 299.747 113.007 299.737 113.055 299.728C113.205 299.695 113.354 299.658 113.498 299.615C113.553 299.597 113.605 299.578 113.659 299.558C113.758 299.525 113.855 299.49 113.953 299.451C114.017 299.426 114.082 299.396 114.146 299.367C114.232 299.33 114.316 299.289 114.4 299.246C114.457 299.217 114.515 299.187 114.57 299.156C114.705 299.082 114.838 299.002 114.966 298.916C114.974 298.91 114.982 298.904 114.991 298.899C115.118 298.811 115.239 298.719 115.358 298.624C115.387 298.6 115.417 298.575 115.446 298.55C115.546 298.464 115.643 298.376 115.737 298.284C115.762 298.261 115.788 298.235 115.811 298.212C115.92 298.103 116.024 297.987 116.122 297.87C116.128 297.862 116.136 297.856 116.142 297.848C116.249 297.717 116.349 297.582 116.444 297.444C116.462 297.419 116.477 297.391 116.494 297.364C116.564 297.259 116.629 297.151 116.691 297.042C116.722 296.985 116.752 296.929 116.781 296.872C116.824 296.788 116.865 296.704 116.904 296.618C116.933 296.55 116.965 296.481 116.994 296.411C117.002 296.39 117.012 296.37 117.02 296.348L131.702 258.612L146.416 296.352C146.424 296.372 146.434 296.391 146.442 296.411C146.47 296.481 146.502 296.55 146.533 296.62C146.572 296.704 146.611 296.79 146.654 296.874C146.683 296.931 146.714 296.987 146.744 297.042C146.807 297.153 146.873 297.261 146.941 297.366C146.959 297.391 146.974 297.419 146.991 297.444C147.086 297.585 147.187 297.719 147.295 297.85C147.299 297.854 147.301 297.858 147.305 297.862C147.407 297.983 147.514 298.1 147.625 298.214C147.647 298.237 147.67 298.259 147.693 298.282C147.789 298.376 147.89 298.466 147.992 298.554C148.019 298.577 148.047 298.601 148.074 298.622C148.195 298.722 148.321 298.815 148.451 298.905C148.457 298.909 148.463 298.913 148.469 298.917C148.598 299.003 148.732 299.083 148.867 299.159C148.922 299.188 148.975 299.216 149.029 299.243C149.117 299.288 149.204 299.331 149.293 299.37C149.356 299.399 149.418 299.427 149.481 299.452C149.58 299.491 149.68 299.528 149.781 299.561C149.832 299.578 149.881 299.598 149.931 299.614C150.077 299.659 150.228 299.696 150.38 299.729C150.429 299.739 150.478 299.749 150.526 299.756C150.651 299.779 150.777 299.799 150.905 299.815C150.944 299.819 150.983 299.825 151.024 299.829C151.195 299.845 151.368 299.856 151.542 299.856C151.552 299.856 151.562 299.854 151.573 299.854H223.268C224.827 299.854 226.312 299.194 227.355 298.036C228.398 296.878 228.901 295.333 228.739 293.782L224.436 252.624H256.852C259.889 252.624 262.352 250.163 262.352 247.124V95.461C262.352 74.686 254.368 54.709 239.262 37.693C224.729 21.324 204.575 8.73099 180.971 1.26899ZM172.769 54.346C172.715 54.399 172.67 54.457 172.62 54.512C172.544 54.594 172.464 54.676 172.391 54.764C172.371 54.787 172.356 54.815 172.336 54.838C170.865 56.705 170.772 59.305 172.065 61.262C172.104 61.323 172.151 61.377 172.194 61.436C172.258 61.528 172.321 61.62 172.392 61.707C172.448 61.773 172.51 61.838 172.571 61.904C172.636 61.976 172.699 62.052 172.77 62.123L188.751 78.105L131.695 161.626L130.73 160.214L155.552 90.04C155.557 90.028 155.561 90.017 155.566 90.005L180.189 20.398L189.15 37.96L172.769 54.346ZM90.62 62.125C90.62 62.125 90.62 62.125 90.622 62.125C90.942 61.805 91.21 61.453 91.435 61.082C91.869 60.365 92.128 59.574 92.206 58.768C92.206 58.766 92.207 58.764 92.208 58.762C92.226 58.565 92.234 58.367 92.232 58.17C92.216 56.783 91.679 55.404 90.623 54.346L74.237 37.959L83.096 20.596L124.926 143.639L123.043 148.961L74.635 78.105L90.62 62.125ZM124.616 12H138.248L140.097 23.18H122.768L124.616 12ZM125.833 34.18H137.032L144.761 87.571L130.851 126.891L117.926 88.873L125.833 34.18ZM51.053 247.697C51.053 247.693 51.053 247.687 51.053 247.683L57.114 189.734C57.155 189.33 57.153 188.923 57.106 188.521L46.106 94.82C45.752 91.802 43.016 89.644 40.002 89.998C36.985 90.353 34.826 93.086 35.18 96.102L46.11 189.198L40.627 241.628H11.507V95.461C11.507 62.326 35.172 32.373 72.853 16.469L62.638 36.492L62.622 36.521C62.608 36.55 62.598 36.58 62.583 36.607C62.519 36.74 62.458 36.873 62.405 37.007C62.382 37.068 62.362 37.128 62.341 37.191C62.304 37.297 62.266 37.402 62.236 37.509C62.211 37.597 62.191 37.687 62.17 37.775C62.152 37.857 62.131 37.939 62.115 38.021C62.096 38.125 62.084 38.23 62.07 38.335C62.062 38.403 62.05 38.474 62.045 38.542C62.035 38.649 62.033 38.759 62.029 38.868C62.027 38.936 62.024 39.005 62.025 39.073C62.025 39.177 62.033 39.278 62.039 39.38C62.045 39.456 62.049 39.534 62.057 39.61C62.067 39.7 62.082 39.79 62.096 39.878C62.11 39.968 62.123 40.056 62.141 40.144C62.157 40.22 62.178 40.296 62.197 40.371C62.221 40.471 62.247 40.568 62.277 40.666C62.298 40.732 62.323 40.797 62.346 40.861C62.381 40.965 62.418 41.066 62.46 41.166C62.486 41.23 62.518 41.293 62.549 41.355C62.594 41.451 62.638 41.546 62.688 41.64C62.729 41.714 62.772 41.785 62.816 41.855C62.864 41.935 62.909 42.013 62.961 42.089C63.022 42.181 63.091 42.269 63.157 42.356C63.198 42.409 63.235 42.464 63.278 42.514C63.368 42.625 63.466 42.731 63.567 42.834C63.59 42.859 63.61 42.885 63.633 42.908L78.955 58.232L63.632 73.553C63.624 73.561 63.617 73.571 63.61 73.578C63.517 73.672 63.432 73.769 63.346 73.869C63.311 73.91 63.274 73.949 63.241 73.99C63.163 74.086 63.095 74.185 63.024 74.283C62.989 74.336 62.949 74.385 62.915 74.437C62.86 74.521 62.813 74.607 62.763 74.693C62.722 74.765 62.677 74.836 62.64 74.91C62.605 74.976 62.577 75.045 62.546 75.111C62.501 75.207 62.454 75.302 62.415 75.4C62.394 75.451 62.38 75.502 62.36 75.554C62.319 75.669 62.276 75.784 62.241 75.902C62.227 75.953 62.218 76.004 62.204 76.054C62.173 76.173 62.141 76.292 62.119 76.413C62.104 76.485 62.098 76.558 62.087 76.632C62.073 76.732 62.056 76.829 62.046 76.929C62.036 77.038 62.034 77.148 62.03 77.255C62.028 77.321 62.022 77.386 62.022 77.452C62.022 77.583 62.031 77.712 62.04 77.843C62.044 77.888 62.044 77.933 62.048 77.976C62.06 78.105 62.081 78.232 62.103 78.359C62.111 78.406 62.116 78.455 62.124 78.502C62.145 78.611 62.176 78.719 62.204 78.826C62.222 78.892 62.234 78.959 62.255 79.025C62.279 79.109 62.312 79.191 62.341 79.273C62.372 79.363 62.402 79.453 62.439 79.541C62.464 79.604 62.496 79.664 62.523 79.725C62.572 79.83 62.619 79.938 62.675 80.041C62.702 80.092 62.736 80.141 62.764 80.191C62.827 80.3 62.89 80.408 62.962 80.515C62.968 80.525 62.974 80.535 62.98 80.544L126.197 173.075V242.427L108.133 288.857H46.748L51.053 247.697ZM251.352 241.627H223.285L217.803 189.197L228.731 96.101C229.085 93.085 226.926 90.353 223.91 89.997C220.895 89.643 218.161 91.802 217.806 94.819L206.807 188.52C206.76 188.922 206.756 189.329 206.799 189.733L212.858 247.678C212.858 247.686 212.86 247.692 212.86 247.699L217.164 288.855H155.298L137.196 242.423V173.073L200.407 80.542C200.415 80.532 200.419 80.522 200.425 80.515C200.499 80.404 200.566 80.29 200.63 80.179C200.657 80.132 200.687 80.087 200.712 80.04C200.771 79.931 200.821 79.819 200.872 79.708C200.897 79.651 200.926 79.597 200.949 79.54C200.988 79.446 201.018 79.351 201.052 79.255C201.079 79.179 201.111 79.103 201.134 79.025C201.155 78.953 201.171 78.879 201.189 78.804C201.215 78.704 201.244 78.605 201.263 78.503C201.275 78.446 201.28 78.39 201.288 78.333C201.308 78.214 201.329 78.095 201.341 77.976C201.345 77.921 201.345 77.867 201.349 77.812C201.357 77.693 201.367 77.572 201.367 77.453C201.367 77.375 201.359 77.297 201.357 77.219C201.353 77.123 201.351 77.028 201.343 76.932C201.331 76.819 201.314 76.707 201.296 76.594C201.286 76.533 201.28 76.473 201.269 76.414C201.245 76.281 201.21 76.152 201.177 76.021C201.165 75.982 201.158 75.941 201.148 75.902C201.111 75.775 201.066 75.652 201.019 75.529C201.003 75.486 200.992 75.443 200.974 75.4C200.933 75.295 200.882 75.193 200.835 75.091C200.806 75.03 200.78 74.968 200.75 74.909C200.71 74.831 200.662 74.755 200.618 74.679C200.57 74.599 200.526 74.515 200.473 74.437C200.438 74.38 200.395 74.328 200.358 74.275C200.29 74.177 200.223 74.082 200.148 73.99C200.112 73.945 200.073 73.904 200.036 73.861C199.953 73.765 199.87 73.668 199.778 73.576C199.77 73.568 199.763 73.558 199.755 73.551L184.437 58.233L199.7 42.967L199.731 42.938L199.758 42.911C199.783 42.886 199.805 42.858 199.828 42.831C199.928 42.729 200.023 42.626 200.113 42.516C200.156 42.465 200.194 42.409 200.234 42.356C200.302 42.268 200.369 42.182 200.429 42.09C200.481 42.014 200.527 41.934 200.575 41.854C200.618 41.784 200.661 41.713 200.7 41.641C200.751 41.547 200.796 41.452 200.841 41.356C200.87 41.293 200.902 41.229 200.929 41.167C200.972 41.067 201.008 40.964 201.044 40.862C201.067 40.798 201.093 40.731 201.112 40.667C201.143 40.569 201.167 40.47 201.192 40.372C201.212 40.296 201.231 40.222 201.248 40.145C201.267 40.057 201.279 39.969 201.294 39.881C201.308 39.791 201.323 39.701 201.333 39.611C201.341 39.535 201.345 39.459 201.349 39.382C201.357 39.278 201.363 39.177 201.365 39.073C201.365 39.005 201.361 38.936 201.359 38.868C201.357 38.759 201.353 38.649 201.343 38.542C201.337 38.472 201.327 38.403 201.32 38.335C201.306 38.23 201.293 38.124 201.273 38.019C201.258 37.939 201.238 37.857 201.218 37.777C201.199 37.687 201.179 37.597 201.154 37.507C201.123 37.402 201.086 37.296 201.049 37.191C201.028 37.131 201.008 37.068 200.985 37.006C200.932 36.873 200.872 36.742 200.807 36.611C200.792 36.58 200.782 36.55 200.766 36.521L200.75 36.49L200.729 36.447L190.571 16.541C227.909 32.506 251.352 62.422 251.352 95.461V241.627Z" fill="#9B793B"/>
</svg>
